<svg xmlns="http://www.w3.org/2000/svg" width="52" height="47" viewBox="0 0 52 47" fill="none">
  <path d="M47.0284 16.0142C47.0276 11.8331 43.859 15.0154 33.8514 16.3686C43.8578 17.2882 47.0407 19.5603 47.0284 16.0142Z" fill="#F39F5A" stroke="#F39F5A"/>
  <path d="M4.77971 15.5071C4.39187 19.6702 7.84257 16.7961 17.9326 16.3788C8.05499 14.5332 5.09698 11.9752 4.77971 15.5071Z" fill="#F39F5A" stroke="#F39F5A"/>
  <path d="M17.9497 16.3779H33.8586" stroke="#F39F5A"/>
  <path d="M40.0565 8.74072C40.056 4.55962 37.9521 7.74192 31.3075 9.0952C37.9513 10.0148 40.0647 12.2868 40.0565 8.74072Z" fill="#F39F5A" stroke="#F39F5A"/>
  <path d="M12.0055 8.23365C11.748 12.3967 14.0391 9.52269 20.7385 9.10532C14.1801 7.25976 12.2161 4.70175 12.0055 8.23365Z" fill="#F39F5A" stroke="#F39F5A"/>
  <path d="M20.7495 9.10498H31.3124" stroke="#F39F5A"/>
  <path d="M40.0565 37.8311C40.056 33.65 37.9521 36.8322 31.3075 38.1855C37.9513 39.1051 40.0647 41.3772 40.0565 37.8311Z" fill="#F39F5A" stroke="#F39F5A"/>
  <path d="M12.0055 37.3245C11.748 41.4875 14.0391 38.6135 20.7385 38.1961C14.1801 36.3506 12.2161 33.7926 12.0055 37.3245Z" fill="#F39F5A" stroke="#F39F5A"/>
  <path d="M20.7495 38.1953H31.3124" stroke="#F39F5A"/>
  <path d="M50.9373 23.2861C50.9365 19.105 47.2038 22.2873 35.4149 23.6406C47.2024 24.5602 50.9519 26.8322 50.9373 23.2861Z" fill="#F39F5A" stroke="#F39F5A"/>
  <path d="M1.16879 22.7796C0.711904 26.9426 4.77685 24.0686 16.6629 23.6512C5.02708 21.8057 1.54253 19.2476 1.16879 22.7796Z" fill="#F39F5A" stroke="#F39F5A"/>
  <path d="M16.6831 23.6504H35.4239" stroke="#F39F5A"/>
  <path d="M47.0284 30.5591C47.0276 26.378 43.859 29.5603 33.8514 30.9136C43.8578 31.8332 47.0407 34.1052 47.0284 30.5591Z" fill="#F39F5A" stroke="#F39F5A"/>
  <path d="M4.77971 30.052C4.39187 34.2151 7.84257 31.341 17.9326 30.9237C8.05499 29.0781 5.09698 26.5201 4.77971 30.052Z" fill="#F39F5A" stroke="#F39F5A"/>
  <path d="M17.9497 30.9229H33.8586" stroke="#F39F5A"/>
  <ellipse cx="26.0002" cy="1.81816" rx="2.27271" ry="1.81816" fill="#F39F5A"/>
  <ellipse cx="26.0002" cy="44.5447" rx="2.27271" ry="1.81816" fill="#F39F5A"/>
</svg>