<svg width="106" height="73" viewBox="0 0 106 73" fill="none" xmlns="http://www.w3.org/2000/svg">
<mask id="mask0_414_822" style="mask-type:luminance" maskUnits="userSpaceOnUse" x="0" y="0" width="106" height="73">
<path d="M105.872 0.462402H0.5V72.5374H105.872V0.462402Z" fill="white"/>
</mask>
<g mask="url(#mask0_414_822)">
<path d="M105.237 4.68644C105.226 4.69744 105.215 4.69743 105.215 4.72043L105.192 4.74244C105.158 4.77744 105.146 4.78843 105.158 4.78843L72.4666 39.1384L64.7666 47.2314C64.7528 47.2212 64.7372 47.2138 64.7206 47.2094L64.5846 47.1414L33.0986 33.0914L34.2466 32.5574L39.5546 30.0684L46.9546 26.6014C46.9677 26.5904 46.9831 26.5825 46.9996 26.5784H47.0116L102.232 0.719428C102.759 0.471885 103.356 0.412978 103.922 0.552588C104.487 0.692199 104.988 1.02187 105.34 1.48642C105.692 1.95098 105.874 2.52226 105.855 3.10474C105.836 3.68722 105.618 4.24559 105.237 4.68644Z" fill="url(#paint0_linear_414_822)"/>
<g style="mix-blend-mode:multiply" opacity="0.2">
<path d="M0.923501 21.8618H0.935494C0.923494 21.8728 0.923499 21.8838 0.912499 21.8958C0.911648 21.8896 0.912196 21.8834 0.914101 21.8775C0.916006 21.8716 0.91922 21.8662 0.923501 21.8618Z" fill="black"/>
</g>
<g style="mix-blend-mode:multiply" opacity="0.2">
<path d="M64.7708 47.2313C64.7708 47.2313 63.7358 46.8563 61.9398 46.1743C60.1398 45.4583 57.5748 44.5043 54.5178 43.2533C51.4598 42.0253 47.9018 40.5593 44.1178 38.9453C40.3338 37.3313 36.3088 35.5583 32.2848 33.7853C30.2848 32.8753 28.2848 31.9773 26.3178 31.0793C24.3508 30.2043 22.4298 29.2793 20.5548 28.4203C16.8268 26.6803 13.3598 25.0203 10.4038 23.5553C8.91481 22.8383 7.5738 22.1553 6.3688 21.5433C5.7778 21.2433 5.2098 20.9513 4.7088 20.7133C4.25909 20.5015 3.76054 20.4152 3.26581 20.4633C2.54867 20.5285 1.87673 20.8419 1.3658 21.3493C1.32091 21.3919 1.27913 21.4377 1.2408 21.4863C1.2058 21.5203 1.17181 21.5653 1.14081 21.5993C1.10757 21.6299 1.07712 21.6634 1.0498 21.6993C1.44802 21.0561 2.06854 20.5816 2.79356 20.3657C3.51859 20.1498 4.29763 20.2077 4.9828 20.5283L33.1048 33.0883L34.2528 32.5543C37.8528 34.1793 41.4478 35.8053 44.8128 37.3853C48.5408 39.1243 52.0078 40.7953 54.9738 42.2503C57.9398 43.7053 60.3738 44.9663 62.0898 45.8303C63.3738 46.4903 64.2378 46.9443 64.5898 47.1383L64.7258 47.2063C64.7423 47.2117 64.7575 47.2202 64.7708 47.2313Z" fill="black"/>
</g>
<path d="M64.7712 47.2317L52.3712 60.2697C52.3625 60.28 52.3551 60.2914 52.3492 60.3037C52.3492 60.3037 52.3372 60.2927 52.3372 60.3037L42.4482 70.7037C42.3051 70.8561 42.1535 71.0003 41.9942 71.1357C41.3721 71.6627 40.6477 72.0554 39.8665 72.2888C39.0853 72.5223 38.2642 72.5916 37.4549 72.4923C36.6456 72.393 35.8657 72.1273 35.1641 71.712C34.4625 71.2966 33.8544 70.7405 33.3782 70.0787L13.6562 42.6847V42.6737C13.6332 42.6617 13.6332 42.6507 13.6332 42.6507L13.3952 42.3207L1.11918 25.2817C0.76385 24.8103 0.552267 24.2463 0.509868 23.6574C0.467469 23.0686 0.596059 22.4801 0.880184 21.9627C0.890742 21.9493 0.898554 21.934 0.903179 21.9177L0.907634 21.9168L0.911342 21.9141L0.913646 21.9102L0.91418 21.9057V21.8947C0.913329 21.8885 0.913877 21.8823 0.915782 21.8764C0.917687 21.8705 0.920901 21.8651 0.925182 21.8607H0.937175C0.959175 21.8147 1.00518 21.7697 1.05018 21.7017C1.4484 21.0585 2.06892 20.5839 2.79394 20.368C3.51896 20.1522 4.29801 20.2101 4.98318 20.5307L33.1052 33.0907L64.5912 47.1407L64.7272 47.2087C64.7431 47.2135 64.7581 47.2213 64.7712 47.2317Z" fill="url(#paint1_linear_414_822)"/>
<g style="mix-blend-mode:multiply" opacity="0.2">
<path d="M72.4666 39.1384L64.7666 47.2314C64.7528 47.2212 64.7372 47.2137 64.7206 47.2094L33.0986 33.0914L34.2466 32.5574L39.5546 30.0684L72.4666 39.1384Z" fill="black"/>
</g>
<g style="mix-blend-mode:screen" opacity="0.5">
<path d="M0.923474 21.8618H0.935467C0.923467 21.8838 0.912472 21.8958 0.912472 21.9068C0.910844 21.891 0.914731 21.8751 0.923474 21.8618Z" fill="white"/>
</g>
<g style="mix-blend-mode:screen" opacity="0.5">
<path d="M64.7708 47.2313C64.7708 47.2313 63.7358 46.8563 61.9398 46.1743C60.1398 45.4583 57.5748 44.5043 54.5178 43.2533C51.4598 42.0253 47.9018 40.5593 44.1178 38.9453C40.3338 37.3313 36.3088 35.5583 32.2848 33.7853C30.2848 32.8753 28.2848 31.9773 26.3178 31.0793C24.3508 30.2043 22.4298 29.2793 20.5548 28.4203C16.8268 26.6803 13.3598 25.0203 10.4038 23.5553C8.91481 22.8383 7.5738 22.1553 6.3688 21.5433C5.7778 21.2433 5.2098 20.9513 4.7088 20.7133C4.25909 20.5015 3.76054 20.4152 3.26581 20.4633C2.54867 20.5285 1.87673 20.8419 1.3658 21.3493C1.32091 21.3919 1.27913 21.4377 1.2408 21.4863C1.20428 21.521 1.17084 21.5589 1.14081 21.5993C1.10757 21.6299 1.07712 21.6634 1.0498 21.6993C1.44802 21.0561 2.06854 20.5816 2.79356 20.3657C3.51859 20.1498 4.29763 20.2077 4.9828 20.5283L33.1048 33.0883L64.5908 47.1383L64.7268 47.2063C64.7429 47.2118 64.7578 47.2203 64.7708 47.2313Z" fill="white"/>
</g>
<g style="mix-blend-mode:multiply" opacity="0.2">
<path d="M52.3353 60.3036L42.4463 70.7036C42.3032 70.856 42.1516 71.0002 41.9923 71.1356C41.3702 71.6626 40.6458 72.0553 39.8646 72.2887C39.0834 72.5222 38.2623 72.5915 37.453 72.4922C36.6438 72.3929 35.8638 72.1272 35.1622 71.7119C34.4606 71.2965 33.8525 70.7404 33.3763 70.0786L13.6543 42.6846C13.7913 42.8326 14.3593 43.5026 15.2543 44.5846C16.2543 45.8346 17.7323 47.5966 19.4263 49.7566C21.1203 51.9166 23.0863 54.4506 25.1433 57.2016C27.2123 59.9296 29.3603 62.9016 31.5203 65.8516L33.1113 68.0916L33.8953 69.2046L34.1003 69.4776C34.1522 69.5573 34.2093 69.6334 34.2713 69.7056C34.3912 69.8682 34.5251 70.0201 34.6713 70.1596C35.1953 70.6895 35.8295 71.0976 36.5289 71.3549C37.2283 71.6122 37.9758 71.7125 38.7183 71.6486C39.4444 71.5889 40.1496 71.3759 40.7873 71.0236C41.0925 70.8555 41.3782 70.6543 41.6393 70.4236L41.8673 70.2306L41.9573 70.1506L42.0573 70.0366L42.4773 69.6276C43.5913 68.5136 44.6603 67.4796 45.6603 66.5276C47.6273 64.6176 49.3323 63.0836 50.4913 61.9696C51.5303 61.0236 52.1883 60.4236 52.3353 60.3036Z" fill="black"/>
</g>
<g style="mix-blend-mode:screen" opacity="0.5">
<path d="M105.544 4.14049C105.683 3.8262 105.752 3.48485 105.744 3.14095C105.736 2.79706 105.652 2.45917 105.499 2.15151C105.295 1.6932 104.943 1.31625 104.5 1.08068C104.058 0.84511 103.549 0.764436 103.055 0.851495C102.433 1.05725 101.838 1.33587 101.282 1.68151C100.634 2.01051 99.9515 2.36349 99.2465 2.72649C96.4045 4.19349 93.0745 5.86452 89.4935 7.62652C87.6935 8.49052 85.8455 9.42649 83.9465 10.3085C82.0476 11.1905 80.1396 12.1165 78.2186 13.0255C74.3536 14.8255 70.4886 16.6055 66.8396 18.2315C63.1906 19.8575 59.7816 21.3455 56.8396 22.5845C53.8956 23.8465 51.4175 24.8125 49.6895 25.5285C48.2005 26.1285 47.2456 26.4835 47.0186 26.5745L102.239 0.715509C102.766 0.470405 103.361 0.413383 103.926 0.553949C104.49 0.694515 104.989 1.02418 105.34 1.48803C105.691 1.95188 105.872 2.52191 105.853 3.10317C105.835 3.68443 105.618 4.24183 105.239 4.68252C105.36 4.51374 105.462 4.33193 105.544 4.14049Z" fill="white"/>
</g>
<g style="mix-blend-mode:screen" opacity="0.3">
<path d="M102.93 3.83351L98.7814 8.18752C95.7921 11.3248 92.8064 14.4619 89.8244 17.5985L48.6084 28.3405C58.2704 23.8165 67.9371 19.2925 77.6084 14.7685C85.3031 11.1685 93.0031 7.56153 100.708 3.94753C101.447 3.60653 102.186 3.25352 102.925 2.91252C103.83 2.48052 103.315 3.42351 102.93 3.83351Z" fill="white"/>
</g>
<g style="mix-blend-mode:screen" opacity="0.3">
<path d="M60.9175 47.9936C59.0301 49.961 57.1508 51.9349 55.2795 53.9156C54.7565 54.4616 54.2345 55.0156 53.7115 55.5636L3.73047 22.5776C4.30544 22.68 4.85643 22.8882 5.35547 23.1916C13.4495 26.8056 21.5465 30.4203 29.6465 34.0356C40.0711 38.6943 50.4948 43.347 60.9175 47.9936Z" fill="white"/>
</g>
</g>
<defs>
<linearGradient id="paint0_linear_414_822" x1="13.3813" y1="23.855" x2="105.856" y2="23.855" gradientUnits="userSpaceOnUse">
<stop stop-color="#F8007A"/>
<stop offset="1" stop-color="#FC7300"/>
</linearGradient>
<linearGradient id="paint1_linear_414_822" x1="57.3802" y1="37.0269" x2="12.0621" y2="54.6857" gradientUnits="userSpaceOnUse">
<stop stop-color="#FCC400"/>
<stop offset="0.162" stop-color="#FBC000"/>
<stop offset="0.307" stop-color="#FBB500"/>
<stop offset="0.446" stop-color="#FBA300"/>
<stop offset="0.581" stop-color="#FA8900"/>
<stop offset="0.712" stop-color="#FA6800"/>
<stop offset="0.842" stop-color="#F93F00"/>
<stop offset="0.967" stop-color="#F81000"/>
<stop offset="1" stop-color="#F80300"/>
</linearGradient>
</defs>
</svg>
