<svg width="13" height="14" viewBox="0 0 13 14" fill="none" xmlns="http://www.w3.org/2000/svg">
<path fill-rule="evenodd" clip-rule="evenodd" d="M5.54458 2.93717C5.39361 2.93718 5.24563 2.97925 5.11723 3.05866C4.98883 3.13807 4.8851 3.25168 4.81766 3.38676L4.60425 3.81359C4.49179 4.03852 4.31891 4.2277 4.10499 4.35991C3.89107 4.49213 3.64456 4.56217 3.39308 4.56217H2.70841C2.49293 4.56217 2.28626 4.64778 2.13389 4.80015C1.98152 4.95252 1.89591 5.15919 1.89591 5.37467V10.2497C1.89591 10.4652 1.98152 10.6718 2.13389 10.8242C2.28626 10.9766 2.49293 11.0622 2.70841 11.0622H10.2917C10.5072 11.0622 10.7139 10.9766 10.8663 10.8242C11.0186 10.6718 11.1042 10.4652 11.1042 10.2497V5.37467C11.1042 5.15919 11.0186 4.95252 10.8663 4.80015C10.7139 4.64778 10.5072 4.56217 10.2917 4.56217H9.60708C9.3556 4.56217 9.10909 4.49213 8.89517 4.35991C8.68125 4.2277 8.50838 4.03852 8.39591 3.81359L8.1825 3.38622C8.11499 3.25124 8.01122 3.13774 7.88283 3.05843C7.75444 2.97912 7.60649 2.93713 7.45558 2.93717H5.54458ZM4.33341 3.14409C4.44588 2.91916 4.61875 2.72999 4.83267 2.59777C5.04659 2.46555 5.2931 2.39552 5.54458 2.39551H7.45558C7.70706 2.39552 7.95357 2.46555 8.16749 2.59777C8.38141 2.72999 8.55429 2.91916 8.66675 3.14409L8.88016 3.57147C8.94767 3.70644 9.05144 3.81994 9.17983 3.89925C9.30822 3.97857 9.45617 4.02055 9.60708 4.02051H10.2917C10.6509 4.02051 10.9953 4.16318 11.2493 4.41713C11.5032 4.67109 11.6459 5.01553 11.6459 5.37467V10.2497C11.6459 10.6088 11.5032 10.9533 11.2493 11.2072C10.9953 11.4612 10.6509 11.6038 10.2917 11.6038H2.70841C2.53058 11.6038 2.35449 11.5688 2.1902 11.5008C2.0259 11.4327 1.87662 11.333 1.75087 11.2072C1.62513 11.0815 1.52538 10.9322 1.45733 10.7679C1.38927 10.6036 1.35425 10.4275 1.35425 10.2497V5.37467C1.35425 5.01553 1.49692 4.67109 1.75087 4.41713C2.00483 4.16318 2.34927 4.02051 2.70841 4.02051H3.39308C3.54405 4.0205 3.69204 3.97844 3.82043 3.89902C3.94883 3.81961 4.05256 3.706 4.12 3.57092L4.33341 3.14409Z" fill="white"/>
<path fill-rule="evenodd" clip-rule="evenodd" d="M6.22925 9.16634V4.83301H6.77091V9.16634H6.22925Z" fill="white"/>
<path fill-rule="evenodd" clip-rule="evenodd" d="M8.66658 7.27116H4.33325V6.72949H8.66658V7.27116Z" fill="white"/>
</svg>
