<svg width="25" height="20" viewBox="0 0 25 20" fill="none" xmlns="http://www.w3.org/2000/svg">
<path d="M16.5826 19V17C16.5826 15.9391 16.1448 14.9217 15.3655 14.1716C14.5862 13.4214 13.5293 13 12.4272 13H5.15536C4.05329 13 2.99636 13.4214 2.21708 14.1716C1.4378 14.9217 1 15.9391 1 17V19" stroke="#444444" stroke-width="2" stroke-linecap="round" stroke-linejoin="round"/>
<path d="M8.79208 9C11.087 9 12.9474 7.20914 12.9474 5C12.9474 2.79086 11.087 1 8.79208 1C6.49714 1 4.63672 2.79086 4.63672 5C4.63672 7.20914 6.49714 9 8.79208 9Z" stroke="#444444" stroke-width="2" stroke-linecap="round" stroke-linejoin="round"/>
<path d="M20.7383 6V12" stroke="#444444" stroke-width="2" stroke-linecap="round" stroke-linejoin="round"/>
<path d="M23.8541 9H17.6211" stroke="#444444" stroke-width="2" stroke-linecap="round" stroke-linejoin="round"/>
</svg>
