<svg width="26" height="21" viewBox="0 0 26 21" fill="none" xmlns="http://www.w3.org/2000/svg">
<path d="M16.5826 19.5V17.5C16.5826 16.4391 16.1448 15.4217 15.3655 14.6716C14.5862 13.9214 13.5293 13.5 12.4272 13.5H5.15536C4.05329 13.5 2.99636 13.9214 2.21708 14.6716C1.4378 15.4217 1 16.4391 1 17.5V19.5" stroke="#D9D9D9" stroke-width="2" stroke-linecap="round" stroke-linejoin="round"/>
<path d="M8.79208 9.5C11.087 9.5 12.9474 7.70914 12.9474 5.5C12.9474 3.29086 11.087 1.5 8.79208 1.5C6.49714 1.5 4.63672 3.29086 4.63672 5.5C4.63672 7.70914 6.49714 9.5 8.79208 9.5Z" stroke="#D9D9D9" stroke-width="2" stroke-linecap="round" stroke-linejoin="round"/>
<path fill-rule="evenodd" clip-rule="evenodd" d="M24.882 6.0489C25.0493 6.2389 25.1076 6.60303 24.9564 6.75584L19.7951 11.9732C19.7225 12.0466 19.6241 12.0878 19.5214 12.0878C19.4187 12.0878 19.3203 12.0466 19.2477 11.9732L17.1832 9.88626C17.032 9.73344 16.733 9.35802 17.0696 9.08802C17.5383 8.71204 17.9186 8.93513 18.0698 9.08795L19.5214 10.5878L21.5698 8.58784L24.0698 6.08795C24.221 5.93513 24.6687 5.80684 24.882 6.0489Z" fill="#D9D9D9"/>
<path fill-rule="evenodd" clip-rule="evenodd" d="M24.882 6.0489C25.0493 6.2389 25.1076 6.60303 24.9564 6.75584L19.7951 11.9732C19.7225 12.0466 19.6241 12.0878 19.5214 12.0878C19.4187 12.0878 19.3203 12.0466 19.2477 11.9732L17.1832 9.88626C17.032 9.73344 16.733 9.35802 17.0696 9.08802C17.5383 8.71204 17.9186 8.93513 18.0698 9.08795L19.5214 10.5878L21.5698 8.58784L24.0698 6.08795C24.221 5.93513 24.6687 5.80684 24.882 6.0489Z" fill="#D9D9D9"/>
</svg>
