<svg width="24" height="24" viewBox="0 0 24 24" fill="none" xmlns="http://www.w3.org/2000/svg">
<path d="M10.9572 12.3541C10.9106 12.3077 10.8737 12.2525 10.8485 12.1918C10.8233 12.131 10.8103 12.0659 10.8103 12.0001C10.8103 11.9344 10.8233 11.8692 10.8485 11.8085C10.8737 11.7477 10.9106 11.6926 10.9572 11.6461L15.5432 7.06113C15.8246 6.77986 15.9827 6.39834 15.9828 6.00048C15.9829 5.60262 15.8249 5.22102 15.5437 4.93963C15.2624 4.65823 14.8809 4.50009 14.483 4.5C14.0852 4.49991 13.7036 4.65786 13.4222 4.93913L8.83617 9.52513C8.18094 10.1822 7.81299 11.0722 7.81299 12.0001C7.81299 12.928 8.18094 13.8181 8.83617 14.4751L13.4222 19.0611C13.7036 19.3424 14.0852 19.5003 14.483 19.5003C14.8809 19.5002 15.2624 19.342 15.5437 19.0606C15.8249 18.7792 15.9829 18.3976 15.9828 17.9998C15.9827 17.6019 15.8246 17.2204 15.5432 16.9391L10.9572 12.3541Z" fill="#7E5D88"/>
</svg>
