<svg width="20" height="20" viewBox="0 0 20 20" fill="none" xmlns="http://www.w3.org/2000/svg">
<g clip-path="url(#clip0_592_13074)">
<path d="M10 6.78C7.90005 6.78 6.20005 8.48 6.20005 10.58C6.20005 12.68 7.90005 14.38 10 14.38C12.1 14.38 13.8 12.68 13.8 10.58C13.8 8.5 12.1 6.78 10 6.78ZM10 13.58C8.34005 13.58 7.00005 12.24 7.00005 10.58C7.00005 8.92 8.34005 7.58 10 7.58C11.66 7.58 13 8.92 13 10.58C13 12.24 11.66 13.58 10 13.58ZM16.6 5.98L13.6 6L12.34 4.16C12.26 4.06 12.14 4 12.02 4H7.98005C7.86005 4 7.74005 4.06 7.66005 4.16L6.40005 6H3.40005C2.52005 6 1.80005 6.7 1.80005 7.58V14.4C1.80005 15.28 2.52005 16 3.40005 16H16.6C17.48 16 18.2 15.28 18.2 14.4V7.4C18.2 6.52 17.48 5.98 16.6 5.98ZM17.4 14.4C17.4 14.84 17.04 15.2 16.6 15.2H3.40005C2.96005 15.2 2.60005 14.84 2.60005 14.4V7.58C2.60005 7.14 2.96005 6.8 3.40005 6.8H6.60005C6.72005 6.8 6.84005 6.74 6.92005 6.64L8.18005 4.8H11.82L13.08 6.64C13.16 6.74 13.28 6.8 13.4 6.8L16.6 6.78C17.04 6.78 17.4 6.96 17.4 7.4V14.4Z" fill="white"/>
<path d="M272.8 -130V206.8H-84.0001V-130H272.8ZM274.4 -131.6H-85.6001V208.4H274.4V-131.6Z" fill="#0000FF"/>
</g>
<defs>
<clipPath id="clip0_592_13074">
<rect width="20" height="20" fill="white"/>
</clipPath>
</defs>
</svg>
