<svg width="26" height="26" viewBox="0 0 26 26" fill="none" xmlns="http://www.w3.org/2000/svg">
<path d="M13 0C5.81579 0 0 5.81579 0 13C0 20.1842 5.81579 26 13 26C20.1842 26 26 20.1842 26 13C26 5.81579 20.1842 0 13 0ZM13 24.6316C6.56842 24.6316 1.36842 19.4316 1.36842 13C1.36842 6.56842 6.56842 1.36842 13 1.36842C19.4316 1.36842 24.6316 6.56842 24.6316 13C24.6316 19.4316 19.4316 24.6316 13 24.6316ZM13.9579 13L18.2684 8.68947C18.5421 8.41579 18.5421 8.00526 18.2684 7.73158C17.9947 7.45789 17.5842 7.45789 17.3105 7.73158L13 12.0421L8.68947 7.73158C8.41579 7.45789 8.00526 7.45789 7.73158 7.73158C7.45789 8.00526 7.45789 8.41579 7.73158 8.68947L12.0421 13L7.73158 17.3105C7.45789 17.5842 7.45789 17.9947 7.73158 18.2684C8.00526 18.5421 8.41579 18.5421 8.68947 18.2684L13 13.9579L17.3105 18.2684C17.5842 18.5421 17.9947 18.5421 18.2684 18.2684C18.5421 17.9947 18.5421 17.5842 18.2684 17.3105L13.9579 13Z" fill="white"/>
</svg>
