<svg width="40" height="40" viewBox="0 0 40 40" fill="none" xmlns="http://www.w3.org/2000/svg">
<g clip-path="url(#clip0_79_3905)">
<path d="M18.5368 20.8938C18.0725 20.4292 17.5211 20.0606 16.9143 19.8091C16.3075 19.5577 15.657 19.4282 15.0001 19.4282C14.3433 19.4282 13.6928 19.5577 13.086 19.8091C12.4791 20.0606 11.9278 20.4292 11.4635 20.8938L0.0634766 32.2938C0.217578 34.384 1.15499 36.3389 2.68826 37.7678C4.22154 39.1966 6.23766 39.994 8.33348 40.0005H31.6668C33.2997 40.0002 34.896 39.5172 36.2551 38.6122L18.5368 20.8938Z" fill="#D9D9D9"/>
<path d="M29.9993 13.3336C31.8403 13.3336 33.3327 11.8413 33.3327 10.0003C33.3327 8.15937 31.8403 6.66699 29.9993 6.66699C28.1584 6.66699 26.666 8.15937 26.666 10.0003C26.666 11.8413 28.1584 13.3336 29.9993 13.3336Z" fill="#D9D9D9"/>
<path d="M31.6667 0H8.33333C6.12401 0.00264643 4.00593 0.88147 2.4437 2.4437C0.88147 4.00593 0.00264643 6.12401 0 8.33333L0 27.6433L9.10667 18.5367C9.88052 17.7626 10.7993 17.1486 11.8105 16.7297C12.8217 16.3107 13.9055 16.0951 15 16.0951C16.0945 16.0951 17.1783 16.3107 18.1895 16.7297C19.2007 17.1486 20.1195 17.7626 20.8933 18.5367L38.6117 36.255C39.5167 34.8959 39.9997 33.2995 40 31.6667V8.33333C39.9974 6.12401 39.1185 4.00593 37.5563 2.4437C35.9941 0.88147 33.876 0.00264643 31.6667 0V0ZM30 16.6667C28.6815 16.6667 27.3925 16.2757 26.2962 15.5431C25.1999 14.8106 24.3454 13.7694 23.8408 12.5512C23.3362 11.333 23.2042 9.9926 23.4614 8.6994C23.7187 7.40619 24.3536 6.2183 25.286 5.28595C26.2183 4.3536 27.4062 3.71867 28.6994 3.46143C29.9926 3.2042 31.333 3.33622 32.5512 3.8408C33.7694 4.34539 34.8106 5.19987 35.5431 6.2962C36.2757 7.39253 36.6667 8.68146 36.6667 10C36.6667 11.7681 35.9643 13.4638 34.714 14.714C33.4638 15.9643 31.7681 16.6667 30 16.6667Z" fill="#D9D9D9"/>
</g>
<defs>
<clipPath id="clip0_79_3905">
<rect width="40" height="40" fill="white"/>
</clipPath>
</defs>
</svg>


