<svg width="163" height="163" viewBox="0 0 163 163" fill="none" xmlns="http://www.w3.org/2000/svg">
<g clip-path="url(#clip0_79_3876)">
<path d="M75.5376 85.1418C73.6454 83.2484 71.3988 81.7464 68.9259 80.7216C66.453 79.6969 63.8025 79.1694 61.1257 79.1694C58.4489 79.1694 55.7984 79.6969 53.3255 80.7216C50.8526 81.7464 48.6059 83.2484 46.7138 85.1418L0.258789 131.597C0.88675 140.114 4.70671 148.081 10.9548 153.903C17.2029 159.726 25.4186 162.975 33.959 163.001H129.042C135.696 163 142.201 161.032 147.74 157.344L75.5376 85.1418Z" fill="#696969"/>
<path d="M122.249 54.3356C129.751 54.3356 135.833 48.2541 135.833 40.7523C135.833 33.2504 129.751 27.1689 122.249 27.1689C114.747 27.1689 108.666 33.2504 108.666 40.7523C108.666 48.2541 114.747 54.3356 122.249 54.3356Z" fill="#696969"/>
<path d="M129.042 0H33.9583C24.9553 0.0107842 16.3242 3.59199 9.95808 9.95808C3.59199 16.3242 0.0107842 24.9553 0 33.9583L0 112.647L37.1097 75.5369C40.2631 72.3826 44.007 69.8805 48.1276 68.1734C52.2482 66.4662 56.6648 65.5876 61.125 65.5876C65.5852 65.5876 70.0018 66.4662 74.1224 68.1734C78.243 69.8805 81.9869 72.3826 85.1403 75.5369L157.343 147.739C161.03 142.201 162.999 135.696 163 129.042V33.9583C162.989 24.9553 159.408 16.3242 153.042 9.95808C146.676 3.59199 138.045 0.0107842 129.042 0V0ZM122.25 67.9167C116.877 67.9167 111.625 66.3234 107.157 63.3383C102.689 60.3531 99.2075 56.1103 97.1513 51.1462C95.0951 46.1822 94.5571 40.7199 95.6053 35.45C96.6536 30.1802 99.2409 25.3396 103.04 21.5403C106.84 17.7409 111.68 15.1536 116.95 14.1053C122.22 13.0571 127.682 13.5951 132.646 15.6513C137.61 17.7075 141.853 21.1895 144.838 25.657C147.823 30.1245 149.417 35.3769 149.417 40.75C149.417 47.955 146.554 54.865 141.46 59.9597C136.365 65.0545 129.455 67.9167 122.25 67.9167Z" fill="#696969"/>
</g>
<defs>
<clipPath id="clip0_79_3876">
<rect width="163" height="163" fill="white"/>
</clipPath>
</defs>
</svg>
