<svg width="39" height="38" viewBox="0 0 39 38" fill="none" xmlns="http://www.w3.org/2000/svg">
<path d="M35.709 12.8098C35.7084 9.46491 33.2784 12.0107 25.6039 13.0934C33.2775 13.829 35.7184 15.6466 35.709 12.8098Z" fill="#F39F5A" stroke="#F39F5A"/>
<path d="M3.3104 12.4045C3.01297 15.7349 5.65923 13.4357 13.397 13.1018C5.82213 11.6254 3.55371 9.57898 3.3104 12.4045Z" fill="#F39F5A" stroke="#F39F5A"/>
<path d="M9.9834 12.8389L29.5841 12.8389" stroke="#F39F5A" stroke-width="2"/>
<path d="M29.9009 6.99337C29.9005 3.64851 28.3436 6.19433 23.4266 7.27695C28.3431 8.01262 29.9069 9.83023 29.9009 6.99337Z" fill="#F39F5A" stroke="#F39F5A"/>
<path d="M9.14335 6.58808C8.95279 9.91852 10.6482 7.6193 15.6058 7.28542C10.7526 5.80897 9.29923 3.76258 9.14335 6.58808Z" fill="#F39F5A" stroke="#F39F5A"/>
<path d="M14.1948 7.17188H26.0716" stroke="#F39F5A" stroke-width="2"/>
<path d="M29.9009 30.2649C29.9005 26.92 28.3436 29.4658 23.4266 30.5484C28.3431 31.2841 29.9069 33.1017 29.9009 30.2649Z" fill="#F39F5A" stroke="#F39F5A"/>
<path d="M9.14335 29.8596C8.95279 33.19 10.6482 30.8908 15.6058 30.5569C10.7526 29.0805 9.29923 27.0341 9.14335 29.8596Z" fill="#F39F5A" stroke="#F39F5A"/>
<path d="M12.875 30.4336L26.9504 30.4336" stroke="#F39F5A" stroke-width="2"/>
<path d="M37.9539 18.6281C37.9532 15.2833 35.191 17.8291 26.4672 18.9117C35.19 19.6474 37.9646 21.465 37.9539 18.6281Z" fill="#F39F5A" stroke="#F39F5A"/>
<path d="M1.12484 18.2238C0.786749 21.5543 3.79482 19.255 12.5905 18.9212C3.97999 17.4447 1.40142 15.3983 1.12484 18.2238Z" fill="#F39F5A" stroke="#F39F5A"/>
<path d="M5.83911 19.0205L32.6704 19.0205" stroke="#F39F5A" stroke-width="2"/>
<path d="M21.1836 18.9088L27.2381 18.9086C25.8856 14.2411 22.693 13.883 21.1836 18.9088Z" fill="#F39F5A" stroke="#F39F5A"/>
<path d="M16.4739 24.3882L22.5284 24.3881C21.1759 21.5746 17.9832 21.3588 16.4739 24.3882Z" fill="#F39F5A" stroke="#F39F5A"/>
<path d="M11.7642 18.9088L17.8187 18.9086C16.4661 14.2411 13.2735 13.883 11.7642 18.9088Z" fill="#F39F5A" stroke="#F39F5A"/>
<path d="M35.709 24.4465C35.7084 21.1016 33.2784 23.6475 25.6039 24.7301C33.2775 25.4657 35.7184 27.2834 35.709 24.4465Z" fill="#F39F5A" stroke="#F39F5A"/>
<path d="M3.3104 24.0412C3.01297 27.3716 5.65923 25.0724 13.397 24.7385C5.82213 23.2621 3.55371 21.2157 3.3104 24.0412Z" fill="#F39F5A" stroke="#F39F5A"/>
<path d="M9.9834 24.7266L29.1283 24.7237" stroke="#F39F5A" stroke-width="2"/>
<ellipse cx="19.5785" cy="1.66431" rx="1.75943" ry="1.66431" fill="#F39F5A"/>
<ellipse cx="19.474" cy="35.426" rx="1.75943" ry="1.66431" fill="#F39F5A"/>
</svg>
