<svg width="21" height="21" viewBox="0 0 21 21" fill="none" xmlns="http://www.w3.org/2000/svg">
<path d="M19.9788 1.02118C21.3404 2.38275 21.3404 4.59029 19.9788 5.95186L7.1023 18.8284C6.54377 19.3869 5.84394 19.7832 5.07763 19.9747L1.08382 20.9732C0.44546 21.1328 -0.132773 20.5545 0.026818 19.9162L1.02527 15.9224C1.21685 15.1561 1.61308 14.4562 2.17162 13.8977L15.0481 1.02118C16.4097 -0.340393 18.6173 -0.340393 19.9788 1.02118ZM13.8153 4.719L3.40429 15.1304C3.06917 15.4655 2.83143 15.8854 2.71648 16.3452L2.07036 18.9296L4.65483 18.2835C5.11461 18.1686 5.53451 17.9308 5.86963 17.5957L16.2803 7.18397L13.8153 4.719ZM16.2808 2.25385L15.0478 3.48652L17.5128 5.95149L18.7462 4.71919C19.4269 4.03841 19.4269 2.93463 18.7462 2.25385C18.0654 1.57306 16.9616 1.57306 16.2808 2.25385Z" fill="white"/>
</svg>
