<svg width="10" height="10" viewBox="0 0 10 10" fill="none" xmlns="http://www.w3.org/2000/svg">
<path d="M9.51372 0.486275C10.1621 1.13464 10.1621 2.18585 9.51372 2.83422L3.38205 8.9659C3.11608 9.23186 2.78283 9.42055 2.41792 9.51178L0.516107 9.98723C0.212124 10.0632 -0.0632253 9.78788 0.0127705 9.48389L0.488224 7.58208C0.57945 7.21717 0.768135 6.88392 1.0341 6.61795L7.16578 0.486275C7.81415 -0.162092 8.86536 -0.162092 9.51372 0.486275ZM6.57873 2.24714L1.62109 7.20494C1.46151 7.36452 1.3483 7.56447 1.29356 7.78342L0.985888 9.01411L2.21658 8.70644C2.43553 8.6517 2.63548 8.53849 2.79506 8.37891L7.75252 3.42094L6.57873 2.24714ZM7.75277 1.07326L7.16563 1.66025L8.33942 2.83404L8.92674 2.24723C9.25092 1.92305 9.25092 1.39744 8.92674 1.07326C8.60255 0.749078 8.07695 0.749078 7.75277 1.07326Z" fill="white"/>
</svg>
