<svg width="23" height="23" viewBox="0 0 23 23" fill="none" xmlns="http://www.w3.org/2000/svg">
<rect width="23" height="23" rx="2" fill="#7E5D88"/>
<path d="M19.6316 3.36844C20.7544 4.49119 20.7544 6.31154 19.6316 7.4343L9.01357 18.0523C8.553 18.5129 7.97592 18.8396 7.34402 18.9976L4.05071 19.8209C3.52431 19.9525 3.0475 19.4757 3.1791 18.9493L4.00242 15.656C4.1604 15.0241 4.48714 14.447 4.94771 13.9865L15.5657 3.36844C16.6885 2.24568 18.5089 2.24568 19.6316 3.36844ZM14.5492 6.41768L5.96417 15.0029C5.68783 15.2793 5.49179 15.6255 5.397 16.0047L4.86421 18.1358L6.99538 17.603C7.37451 17.5083 7.72076 17.3122 7.99711 17.0359L16.5818 8.4503L14.5492 6.41768ZM16.5822 4.3849L15.5655 5.40137L17.5981 7.43399L18.6151 6.41783C19.1765 5.85645 19.1765 4.94628 18.6151 4.3849C18.0538 3.82352 17.1436 3.82352 16.5822 4.3849Z" fill="white"/>
</svg>
