<svg width="37" height="37" viewBox="0 0 37 37" fill="none" xmlns="http://www.w3.org/2000/svg">
<rect width="37" height="37" rx="2" fill="#F4F4F4"/>
<path d="M31.5813 5.41908C33.3874 7.22526 33.3874 10.1536 31.5813 11.9598L14.5001 29.041C13.7592 29.7819 12.8308 30.3076 11.8143 30.5617L6.51635 31.8862C5.66953 32.0979 4.90248 31.3308 5.11419 30.484L6.43867 25.1861C6.69281 24.1695 7.21843 23.2412 7.95935 22.5003L25.0405 5.41908C26.8467 3.61291 29.7751 3.61291 31.5813 5.41908ZM23.4052 10.3244L9.59453 24.1355C9.14998 24.58 8.83461 25.137 8.68213 25.7469L7.82503 29.1753L11.2534 28.3182C11.8633 28.1658 12.4203 27.8504 12.8649 27.4058L26.6751 13.5943L23.4052 10.3244ZM26.6757 7.05427L25.0401 8.68945L28.31 11.9593L29.9461 10.3246C30.8492 9.42155 30.8492 7.95736 29.9461 7.05427C29.043 6.15118 27.5788 6.15118 26.6757 7.05427Z" fill="#7E5D88"/>
</svg>
