<svg width="22" height="22" viewBox="0 0 22 22" fill="none" xmlns="http://www.w3.org/2000/svg">
<g id="user">
<path id="Vector" d="M18 18.875V17.125C18 16.1967 17.6313 15.3065 16.9749 14.6501C16.3185 13.9937 15.4283 13.625 14.5 13.625H7.5C6.57174 13.625 5.6815 13.9937 5.02513 14.6501C4.36875 15.3065 4 16.1967 4 17.125V18.875" stroke="#EA4335" stroke-width="1.5" stroke-linecap="round" stroke-linejoin="round"/>
<path id="Vector_2" d="M11 9.9707C12.933 9.9707 14.5 8.4037 14.5 6.4707C14.5 4.53771 12.933 2.9707 11 2.9707C9.067 2.9707 7.5 4.53771 7.5 6.4707C7.5 8.4037 9.067 9.9707 11 9.9707Z" stroke="#EA4335" stroke-width="1.5" stroke-linecap="round" stroke-linejoin="round"/>
<g id="Group 14">
<path id="Vector_3" d="M18 11C18.9665 11 19.75 10.2165 19.75 9.25C19.75 8.2835 18.9665 7.5 18 7.5C17.0335 7.5 16.25 8.2835 16.25 9.25C16.25 10.2165 17.0335 11 18 11Z" stroke="#EA4335" stroke-width="0.5" stroke-linecap="round" stroke-linejoin="round"/>
<path id="Vector 1" d="M16.6875 7.9375C17.125 8.375 18.875 10.125 19.3125 10.5625" stroke="#EA4335" stroke-width="0.5"/>
</g>
</g>
</svg>
