<svg width="20" height="18" viewBox="0 0 20 18" fill="none" xmlns="http://www.w3.org/2000/svg">
<g id="message-circle">
<path id="Vector" d="M6.26362 9.308C6.26126 10.3233 6.47212 11.3248 6.879 12.2311C7.36144 13.317 8.1031 14.2304 9.02091 14.869C9.93872 15.5075 10.9964 15.846 12.0756 15.8465C12.978 15.8491 13.8683 15.6119 14.6739 15.1542L18.5713 16.6157L17.2721 12.2311C17.679 11.3248 17.8899 10.3233 17.8875 9.308C17.8871 8.09397 17.5863 6.90405 17.0187 5.87151C16.4511 4.83897 15.6392 4.0046 14.6739 3.46186C13.8683 3.00412 12.978 2.76691 12.0756 2.76955H11.7337C10.3085 2.85801 8.96239 3.53475 7.95309 4.67021C6.94379 5.80567 6.34224 7.32005 6.26362 8.92339V9.308Z" fill="#696969" stroke="#69A2FF" stroke-linecap="round" stroke-linejoin="round"/>
<g id="Group 13">
<path id="Vector_2" d="M15.7145 8.65416C15.717 9.56791 15.4967 10.4693 15.0717 11.2849C14.5677 12.2623 13.7929 13.0843 12.8342 13.659C11.8754 14.2337 10.7704 14.5383 9.64313 14.5388C8.70036 14.5411 7.77035 14.3277 6.92884 13.9157L2.85742 15.2311L4.21456 11.2849C3.78951 10.4693 3.56925 9.56791 3.57171 8.65416C3.57214 7.56153 3.88643 6.4906 4.47936 5.56131C5.07229 4.63203 5.92046 3.8811 6.92884 3.39263C7.77035 2.98066 8.70036 2.76717 9.64313 2.76955H10.0003C11.4891 2.84916 12.8953 3.45823 13.9496 4.48014C15.004 5.50205 15.6324 6.865 15.7145 8.308V8.65416Z" fill="#696969" stroke="#69A2FF" stroke-linecap="round" stroke-linejoin="round"/>
<path id="Vector_3" d="M11.7589 6.92383L7.14355 11.0777" stroke="#69A2FF" stroke-linecap="round" stroke-linejoin="round"/>
<path id="Vector_4" d="M7.14355 6.92383L11.7589 11.0777" stroke="#69A2FF" stroke-linecap="round" stroke-linejoin="round"/>
</g>
</g>
</svg>
