<svg width="15" height="15" viewBox="0 0 15 15" fill="none" xmlns="http://www.w3.org/2000/svg">
<g id="share-2">
<path id="Vector" d="M11.75 5C12.7855 5 13.625 4.16053 13.625 3.125C13.625 2.08947 12.7855 1.25 11.75 1.25C10.7145 1.25 9.875 2.08947 9.875 3.125C9.875 4.16053 10.7145 5 11.75 5Z" stroke="white" stroke-linecap="round" stroke-linejoin="round"/>
<path id="Vector_2" d="M4.25 9.375C5.28553 9.375 6.125 8.53553 6.125 7.5C6.125 6.46447 5.28553 5.625 4.25 5.625C3.21447 5.625 2.375 6.46447 2.375 7.5C2.375 8.53553 3.21447 9.375 4.25 9.375Z" stroke="white" stroke-linecap="round" stroke-linejoin="round"/>
<path id="Vector_3" d="M11.75 13.75C12.7855 13.75 13.625 12.9105 13.625 11.875C13.625 10.8395 12.7855 10 11.75 10C10.7145 10 9.875 10.8395 9.875 11.875C9.875 12.9105 10.7145 13.75 11.75 13.75Z" stroke="white" stroke-linecap="round" stroke-linejoin="round"/>
<path id="Vector_4" d="M5.86914 8.44336L10.1379 10.9309" stroke="white" stroke-linecap="round" stroke-linejoin="round"/>
<path id="Vector_5" d="M10.1316 4.06836L5.86914 6.55586" stroke="white" stroke-linecap="round" stroke-linejoin="round"/>
</g>
</svg>
