<svg width="5" height="22" viewBox="0 0 5 22" fill="none" xmlns="http://www.w3.org/2000/svg">
<g id="Frame 7">
<g id="Group 3">
<path id="Vector" d="M2.49675 12.25C3.32662 12.25 3.99936 11.6904 3.99936 11C3.99936 10.3096 3.32662 9.75 2.49675 9.75C1.66688 9.75 0.994141 10.3096 0.994141 11C0.994141 11.6904 1.66688 12.25 2.49675 12.25Z" fill="white" stroke="white" stroke-width="2" stroke-linecap="round" stroke-linejoin="round"/>
<path id="Vector_2" d="M2.49675 3.5C3.32662 3.5 3.99936 2.94036 3.99936 2.25C3.99936 1.55964 3.32662 1 2.49675 1C1.66688 1 0.994141 1.55964 0.994141 2.25C0.994141 2.94036 1.66688 3.5 2.49675 3.5Z" fill="white" stroke="white" stroke-width="2" stroke-linecap="round" stroke-linejoin="round"/>
<path id="Vector_3" d="M2.49675 21C3.32662 21 3.99936 20.4404 3.99936 19.75C3.99936 19.0596 3.32662 18.5 2.49675 18.5C1.66688 18.5 0.994141 19.0596 0.994141 19.75C0.994141 20.4404 1.66688 21 2.49675 21Z" fill="white" stroke="white" stroke-width="2" stroke-linecap="round" stroke-linejoin="round"/>
</g>
</g>
</svg>
