<svg width="25" height="24" viewBox="0 0 25 24" fill="none" xmlns="http://www.w3.org/2000/svg">
<g id="phone call">
<path id="Vector" d="M14.6505 5.20487C15.681 5.40519 16.6281 5.90735 17.3705 6.64707C18.113 7.38679 18.617 8.33042 18.818 9.35718M14.6505 1C16.7915 1.23698 18.788 2.19226 20.3122 3.70899C21.8364 5.22573 22.7977 7.21376 23.0383 9.34667M21.9832 17.7354V20.889C21.9844 21.1818 21.9242 21.4716 21.8065 21.7398C21.6888 22.0081 21.5161 22.2489 21.2996 22.4468C21.0831 22.6447 20.8275 22.7954 20.5491 22.8892C20.2708 22.983 19.9758 23.0178 19.6832 22.9915C16.4366 22.64 13.318 21.5346 10.578 19.7642C8.02876 18.1503 5.86748 15.9968 4.2476 13.4569C2.46453 10.7145 1.35488 7.59218 1.00856 4.34287C0.982198 4.05217 1.01687 3.75919 1.11038 3.48258C1.20388 3.20597 1.35417 2.95178 1.55167 2.73621C1.74918 2.52064 1.98957 2.34841 2.25754 2.23047C2.52551 2.11254 2.81519 2.05149 3.10814 2.05122H6.27332C6.78535 2.0462 7.28174 2.22685 7.66997 2.55952C8.05821 2.89218 8.31178 3.35415 8.38345 3.85931C8.51704 4.86855 8.7648 5.85949 9.12199 6.81323C9.26394 7.18949 9.29466 7.5984 9.21052 7.99152C9.12637 8.38464 8.93088 8.74549 8.64721 9.0313L7.30728 10.3663C8.80922 12.9981 10.9963 15.1772 13.6377 16.6737L14.9776 15.3386C15.2644 15.056 15.6266 14.8612 16.0212 14.7774C16.4157 14.6935 16.8261 14.7241 17.2038 14.8656C18.161 15.2214 19.1556 15.4683 20.1685 15.6014C20.681 15.6734 21.1491 15.9307 21.4837 16.3241C21.8183 16.7176 21.996 17.2198 21.9832 17.7354Z" stroke="white" stroke-width="2" stroke-linecap="round" stroke-linejoin="round"/>
</g>
</svg>
