<svg width="29" height="23" viewBox="0 0 29 23" fill="none" xmlns="http://www.w3.org/2000/svg">
<g id="add friend">
<path id="Vector" d="M19.3957 21.25V19C19.3957 17.8065 18.9031 16.6619 18.0265 15.818C17.1498 14.9741 15.9607 14.5 14.7209 14.5H6.54002C5.30019 14.5 4.11114 14.9741 3.23445 15.818C2.35775 16.6619 1.86523 17.8065 1.86523 19V21.25" stroke="white" stroke-width="2" stroke-linecap="round" stroke-linejoin="round"/>
<path id="Vector_2" d="M10.6308 10C13.2126 10 15.3056 7.98528 15.3056 5.5C15.3056 3.01472 13.2126 1 10.6308 1C8.04903 1 5.95605 3.01472 5.95605 5.5C5.95605 7.98528 8.04903 10 10.6308 10Z" stroke="white" stroke-width="2" stroke-linecap="round" stroke-linejoin="round"/>
<path id="Vector_3" d="M24.0713 6.625V13.375" stroke="white" stroke-width="2" stroke-linecap="round" stroke-linejoin="round"/>
<path id="Vector_4" d="M27.5766 10H20.5645" stroke="white" stroke-width="2" stroke-linecap="round" stroke-linejoin="round"/>
</g>
</svg>
