<svg width="17" height="16" viewBox="0 0 17 16" fill="none" xmlns="http://www.w3.org/2000/svg">
<g id="copy">
<path id="Vector" d="M14.6667 6.5H8.29167C7.50926 6.5 6.875 7.09695 6.875 7.83333V13.8333C6.875 14.5697 7.50926 15.1667 8.29167 15.1667H14.6667C15.4491 15.1667 16.0833 14.5697 16.0833 13.8333V7.83333C16.0833 7.09695 15.4491 6.5 14.6667 6.5Z" stroke="white" stroke-linecap="round" stroke-linejoin="round"/>
<path id="Vector_2" d="M4.04199 10.5007H3.33366C2.95794 10.5007 2.5976 10.3602 2.33192 10.1101C2.06625 9.86008 1.91699 9.52094 1.91699 9.16732V3.16732C1.91699 2.8137 2.06625 2.47456 2.33192 2.22451C2.5976 1.97446 2.95794 1.83398 3.33366 1.83398H9.70866C10.0844 1.83398 10.4447 1.97446 10.7104 2.22451C10.9761 2.47456 11.1253 2.8137 11.1253 3.16732V3.83398" stroke="white" stroke-linecap="round" stroke-linejoin="round"/>
</g>
</svg>
