<svg width="33" height="33" viewBox="0 0 33 33" fill="none" xmlns="http://www.w3.org/2000/svg">
<path d="M28.2288 17.2288L24.1038 21.3538C23.903 21.5545 23.639 21.6563 23.375 21.6563C23.111 21.6563 22.847 21.5559 22.6462 21.3538C22.2434 20.9509 22.2434 20.2978 22.6462 19.8949L25.0113 17.5299H12.3764C11.8071 17.5299 11.3451 17.0679 11.3451 16.4986C11.3451 15.9294 11.8071 15.4674 12.3764 15.4674H25.0113L22.6462 13.1024C22.2434 12.6995 22.2434 12.0464 22.6462 11.6435C23.0491 11.2406 23.7022 11.2406 24.1051 11.6435L28.2301 15.7685C28.633 16.1714 28.633 16.8245 28.2301 17.2274L28.2288 17.2288ZM13.4062 27.5C13.4062 26.9308 12.9443 26.4688 12.375 26.4688H8.25C7.30262 26.4688 6.53125 25.6974 6.53125 24.75V8.25C6.53125 7.30263 7.30262 6.53125 8.25 6.53125H12.375C12.9443 6.53125 13.4062 6.06925 13.4062 5.5C13.4062 4.93075 12.9443 4.46875 12.375 4.46875H8.25C6.16413 4.46875 4.46875 6.16413 4.46875 8.25V24.75C4.46875 26.8359 6.16413 28.5313 8.25 28.5313H12.375C12.9443 28.5313 13.4062 28.0693 13.4062 27.5Z" fill="white"/>
</svg>
