<svg width="52" height="47" viewBox="0 0 52 47" fill="none" xmlns="http://www.w3.org/2000/svg">
<path d="M47.0288 16.0137C47.0281 11.8326 43.8594 15.0149 33.8519 16.3682C43.8583 17.2878 47.0412 19.5598 47.0288 16.0137Z" fill="#F39F5A" stroke="#F39F5A"/>
<path d="M4.77922 15.5068C4.39138 19.6699 7.84209 16.7959 17.9321 16.3785C8.0545 14.533 5.09649 11.9749 4.77922 15.5068Z" fill="#F39F5A" stroke="#F39F5A"/>
<path d="M17.9492 16.3778H33.8582" stroke="#F39F5A"/>
<path d="M40.0565 8.74084C40.056 4.55974 37.9521 7.74204 31.3075 9.09532C37.9513 10.0149 40.0647 12.2869 40.0565 8.74084Z" fill="#F39F5A" stroke="#F39F5A"/>
<path d="M12.0055 8.23396C11.748 12.397 14.0391 9.52299 20.7385 9.10563C14.1801 7.26006 12.2161 4.70205 12.0055 8.23396Z" fill="#F39F5A" stroke="#F39F5A"/>
<path d="M20.75 9.10492H31.3129" stroke="#F39F5A"/>
<path d="M40.0565 37.8311C40.056 33.65 37.9521 36.8323 31.3075 38.1856C37.9513 39.1052 40.0647 41.3772 40.0565 37.8311Z" fill="#F39F5A" stroke="#F39F5A"/>
<path d="M12.0055 37.3242C11.748 41.4873 14.0391 38.6133 20.7385 38.1959C14.1801 36.3503 12.2161 33.7923 12.0055 37.3242Z" fill="#F39F5A" stroke="#F39F5A"/>
<path d="M20.75 38.1952H31.3129" stroke="#F39F5A"/>
<path d="M50.9373 23.2862C50.9365 19.1051 47.2038 22.2874 35.4149 23.6406C47.2024 24.5602 50.9519 26.8323 50.9373 23.2862Z" fill="#F39F5A" stroke="#F39F5A"/>
<path d="M1.16781 22.7793C0.710927 26.9424 4.77588 24.0683 16.6619 23.651C5.0261 21.8054 1.54156 19.2474 1.16781 22.7793Z" fill="#F39F5A" stroke="#F39F5A"/>
<path d="M16.6836 23.6503H35.4244" stroke="#F39F5A"/>
<path d="M47.0288 30.5586C47.0281 26.3775 43.8594 29.5598 33.8519 30.9131C43.8583 31.8327 47.0412 34.1047 47.0288 30.5586Z" fill="#F39F5A" stroke="#F39F5A"/>
<path d="M4.77922 30.0518C4.39138 34.2148 7.84209 31.3408 17.9321 30.9234C8.0545 29.0779 5.09649 26.5199 4.77922 30.0518Z" fill="#F39F5A" stroke="#F39F5A"/>
<path d="M17.9492 30.9227H33.8582" stroke="#F39F5A"/>
<ellipse cx="25.9993" cy="1.81816" rx="2.27271" ry="1.81816" fill="#F39F5A"/>
<ellipse cx="25.9993" cy="44.5449" rx="2.27271" ry="1.81816" fill="#F39F5A"/>
</svg>
