<svg width="6" height="23" viewBox="0 0 6 23" fill="none" xmlns="http://www.w3.org/2000/svg">
<path d="M3.2487 12.75C4.07857 12.75 4.75131 12.1904 4.75131 11.5C4.75131 10.8096 4.07857 10.25 3.2487 10.25C2.41883 10.25 1.74609 10.8096 1.74609 11.5C1.74609 12.1904 2.41883 12.75 3.2487 12.75Z" fill="#696969" stroke="#696969" stroke-width="2" stroke-linecap="round" stroke-linejoin="round"/>
<path d="M3.2487 4C4.07857 4 4.75131 3.44036 4.75131 2.75C4.75131 2.05964 4.07857 1.5 3.2487 1.5C2.41883 1.5 1.74609 2.05964 1.74609 2.75C1.74609 3.44036 2.41883 4 3.2487 4Z" fill="#696969" stroke="#696969" stroke-width="2" stroke-linecap="round" stroke-linejoin="round"/>
<path d="M3.2487 21.5C4.07857 21.5 4.75131 20.9404 4.75131 20.25C4.75131 19.5596 4.07857 19 3.2487 19C2.41883 19 1.74609 19.5596 1.74609 20.25C1.74609 20.9404 2.41883 21.5 3.2487 21.5Z" fill="#696969" stroke="#696969" stroke-width="2" stroke-linecap="round" stroke-linejoin="round"/>
</svg>
