<svg width="28" height="28" viewBox="0 0 28 28" fill="none" xmlns="http://www.w3.org/2000/svg">
<path d="M16.2291 7.06777C17.102 7.23774 17.9042 7.66381 18.533 8.29145C19.1619 8.91909 19.5888 9.71975 19.7591 10.5909M16.2291 3.5C18.0426 3.70108 19.7337 4.51162 21.0247 5.79854C22.3157 7.08546 23.1299 8.77228 23.3337 10.582M22.44 17.6997V20.3755C22.441 20.6239 22.39 20.8698 22.2903 21.0974C22.1906 21.325 22.0444 21.5293 21.861 21.6973C21.6776 21.8652 21.4611 21.9931 21.2253 22.0726C20.9895 22.1522 20.7397 22.1818 20.4919 22.1594C17.7419 21.8612 15.1005 20.9233 12.7797 19.4212C10.6204 18.0517 8.7898 16.2246 7.41775 14.0695C5.90746 11.7426 4.96758 9.09336 4.67425 6.33638C4.65191 6.08972 4.68128 5.84113 4.76048 5.60643C4.83968 5.37173 4.96698 5.15606 5.13427 4.97315C5.30155 4.79024 5.50517 4.6441 5.73214 4.54404C5.95912 4.44397 6.20448 4.39218 6.45261 4.39194H9.13356C9.56725 4.38768 9.9877 4.54097 10.3165 4.82323C10.6454 5.10548 10.8602 5.49746 10.9209 5.92608C11.034 6.78241 11.2439 7.6232 11.5464 8.43244C11.6666 8.75169 11.6927 9.09864 11.6214 9.4322C11.5501 9.76575 11.3845 10.0719 11.1443 10.3144L10.0093 11.4472C11.2815 13.6802 13.1339 15.5291 15.3712 16.7989L16.5062 15.6661C16.7491 15.4263 17.0559 15.261 17.3901 15.1899C17.7243 15.1187 18.0719 15.1447 18.3918 15.2647C19.2026 15.5667 20.045 15.7761 20.9029 15.8891C21.337 15.9502 21.7335 16.1684 22.0169 16.5023C22.3003 16.8361 22.4509 17.2623 22.44 17.6997Z" stroke="#D9D9D9" stroke-width="2" stroke-linecap="round" stroke-linejoin="round"/>
</svg>
