<svg width="12" height="11" viewBox="0 0 12 11" fill="none" xmlns="http://www.w3.org/2000/svg">
<path d="M0.0972973 4.1166L4.63784 7.78571C4.84865 7.95606 5.18919 7.83812 5.18919 7.60225V5.74149C5.28649 5.74149 5.38378 5.72839 5.46486 5.72839C7.54054 5.72839 9.22703 7.07809 9.22703 8.72919C9.22703 9.41059 8.93513 10.0003 8.35135 10.5637C8.12432 10.7734 8.43243 11.101 8.74054 10.97C10.7838 10.1313 12 8.57194 12 6.80291C12 4.15592 9.29189 2.01997 5.95135 2.01997C5.69189 2.01997 5.41622 2.03308 5.18919 2.05929V0.264047C5.18919 0.0281766 4.84865 -0.0897588 4.63784 0.0805924L0.0972973 3.74969C-0.0324324 3.85453 -0.0324324 4.01177 0.0972973 4.1166ZM0.778378 3.93315L4.54054 0.893036V2.36068C4.54054 2.51792 4.71892 2.64896 4.92973 2.62276C5.18919 2.58344 5.57838 2.53103 5.96757 2.53103C8.93513 2.53103 11.3514 4.4442 11.3514 6.80291C11.3514 7.99537 10.7189 9.0961 9.61622 9.86923C9.77838 9.51542 9.87568 9.13541 9.87568 8.74229C9.87568 6.78981 7.8973 5.21733 5.46486 5.21733C4.96216 5.21733 4.54054 5.21733 4.54054 5.50562V6.97326L0.778378 3.93315Z" fill="white"/>
</svg>
