<svg width="24" height="19" viewBox="0 0 24 19" fill="none" xmlns="http://www.w3.org/2000/svg">
<path d="M0.194595 7.1105L9.27567 13.448C9.6973 13.7423 10.3784 13.5386 10.3784 13.1312V9.91712C10.573 9.91712 10.7676 9.89449 10.9297 9.89449C15.0811 9.89449 18.4541 12.2258 18.4541 15.0777C18.4541 16.2547 17.8703 17.2732 16.7027 18.2465C16.2486 18.6086 16.8649 19.1745 17.4811 18.9481C21.5676 17.4995 24 14.8061 24 11.7505C24 7.1784 18.5838 3.48905 11.9027 3.48905C11.3838 3.48905 10.8324 3.51168 10.3784 3.55695V0.456082C10.3784 0.0486686 9.6973 -0.155038 9.27567 0.139205L0.194595 6.47674C-0.0648649 6.65782 -0.0648649 6.92943 0.194595 7.1105ZM1.55676 6.79362L9.08108 1.54252V4.07753C9.08108 4.34914 9.43784 4.57548 9.85946 4.53021C10.3784 4.46231 11.1568 4.37178 11.9351 4.37178C17.8703 4.37178 22.7027 7.67635 22.7027 11.7505C22.7027 13.8102 21.4378 15.7114 19.2324 17.0469C19.5568 16.4357 19.7514 15.7793 19.7514 15.1003C19.7514 11.7278 15.7946 9.01176 10.9297 9.01176C9.92432 9.01176 9.08108 9.01176 9.08108 9.50971V12.0447L1.55676 6.79362Z" fill="#451952"/>
</svg>
