<svg width="343" height="342" viewBox="0 0 343 342" fill="none" xmlns="http://www.w3.org/2000/svg">
<path d="M140.972 106.808C131.55 114.757 113.191 113.432 105.189 111.776C95.6776 110.615 106.548 103.647 126.477 97.3243C146.406 91.0016 155.012 81.9692 156.372 87.8403C157.73 93.7113 152.749 96.8726 140.972 106.808Z" fill="#F6E1CE"/>
<path d="M267.211 152.408C271.178 187.974 276.91 192.805 300.276 220.03C318.808 241.623 300.739 279.795 289.114 296.859H117.508C107.463 296.859 74.7112 267.494 68.1806 259.883C65.9554 257.291 63.3884 254.547 60.4401 251.646C24.2883 216.078 45.0094 144.503 70.5802 130.451C96.151 116.4 125.249 143.186 171.1 101.909C216.951 60.6331 263.536 119.474 267.211 152.408Z" fill="#F6E1CE"/>
<path d="M99.8055 235.85C98.8187 259.138 113.392 284.633 121.664 295.626C122.095 296.201 122.773 296.526 123.493 296.526H129.643C131.038 296.526 132.119 295.291 131.936 293.914C126.456 252.835 111.27 237.487 102.377 234.039C101.115 233.55 99.8626 234.503 99.8055 235.85Z" fill="white"/>
<path fill-rule="evenodd" clip-rule="evenodd" d="M102.096 234.759C101.41 234.492 100.62 234.976 100.581 235.883C100.095 247.367 103.447 259.442 107.977 270.047C112.505 280.643 118.184 289.712 122.285 295.163C122.565 295.535 123.009 295.754 123.494 295.754H129.644C130.567 295.754 131.289 294.933 131.167 294.015C125.702 253.043 110.595 238.054 102.096 234.759ZM99.0308 235.818C99.1065 234.031 100.821 232.606 102.659 233.319C111.946 236.919 127.212 252.626 132.705 293.812C132.95 295.649 131.511 297.298 129.644 297.298H123.494C122.538 297.298 121.627 296.865 121.044 296.089C116.873 290.546 111.129 281.371 106.549 270.651C101.972 259.937 98.5306 247.621 99.0308 235.818Z" fill="#81AEAC"/>
<path d="M146.366 221.964C127.224 238.996 123.392 278.914 123.447 294.586C123.451 295.837 124.483 296.808 125.738 296.808H131.433C132.294 296.808 133.095 296.318 133.493 295.558C152.652 258.994 150.681 236.291 149.987 223.634C149.885 221.773 147.761 220.723 146.366 221.964Z" fill="#81AEAC"/>
<path d="M161.48 257.599C146.387 264.779 134.496 282.524 129.001 293.304C128.237 294.802 129.355 296.526 131.042 296.526H137.811C138.259 296.526 138.703 296.396 139.077 296.148C155.52 285.286 162.333 269.145 164.287 259.785C164.633 258.127 163.015 256.868 161.48 257.599Z" fill="white"/>
<path fill-rule="evenodd" clip-rule="evenodd" d="M163.527 259.627C163.742 258.599 162.774 257.84 161.815 258.296C154.41 261.818 147.749 267.957 142.24 274.593C136.736 281.224 132.418 288.305 129.693 293.654C129.206 294.609 129.903 295.754 131.042 295.754H137.812C138.11 295.754 138.404 295.666 138.648 295.505C154.878 284.783 161.603 268.846 163.527 259.627ZM161.146 256.902C163.256 255.898 165.525 257.655 165.047 259.942C163.063 269.445 156.163 285.789 139.506 296.792C139.003 297.125 138.41 297.298 137.812 297.298H131.042C128.808 297.298 127.27 294.993 128.309 292.954C131.077 287.523 135.454 280.342 141.044 273.609C146.627 266.883 153.458 260.56 161.146 256.902Z" fill="#81AEAC"/>
<path fill-rule="evenodd" clip-rule="evenodd" d="M107.963 243.051C111.138 247.34 114.128 253.212 116.81 259.566C118.626 263.87 120.308 268.411 121.813 272.858L123.311 268.095L124.793 268.556L122.649 275.37C124.026 279.583 125.235 283.655 126.243 287.296C127.173 290.661 127.933 293.662 128.49 296.069L126.979 296.417C126.445 294.116 125.725 291.261 124.843 288.057L119.486 285.668L120.12 284.259L124.304 286.124C123.377 282.852 122.3 279.284 121.097 275.615C119.456 270.608 117.581 265.418 115.534 260.532L108.303 258.927L108.64 257.419L114.788 258.783C112.284 253.019 109.556 247.807 106.714 243.967L107.963 243.051Z" fill="#81AEAC"/>
<path fill-rule="evenodd" clip-rule="evenodd" d="M140.338 248.329C141.459 244.324 142.528 240.698 143.489 237.706C144.603 234.231 145.557 231.665 146.266 230.336L144.896 229.611C144.112 231.079 143.122 233.772 142.01 237.235C140.892 240.719 139.633 245.04 138.317 249.801C137.399 253.126 136.453 256.666 135.506 260.293L133.264 255.051L131.836 255.655L134.868 262.746C133.723 267.173 132.587 271.681 131.51 276.036C129.644 283.577 127.953 290.661 126.695 296.069L128.207 296.418C129.445 291.097 131.103 284.148 132.934 276.74L140.565 272.672L139.832 271.311L133.434 274.721C134.406 270.815 135.418 266.811 136.437 262.878C137.543 258.601 138.657 254.406 139.733 250.507L145.986 246.706L145.176 245.388L140.338 248.329Z" fill="white"/>
<path fill-rule="evenodd" clip-rule="evenodd" d="M152.502 270.333C154.388 268.381 156.231 266.649 157.965 265.261L156.992 264.057C154.711 265.886 152.275 268.259 149.832 270.905C148.249 272.619 146.656 274.45 145.094 276.329L145.497 273.804L143.963 273.562L143.143 278.719C141.085 281.279 139.108 283.873 137.306 286.322C134.492 290.147 132.099 293.629 130.482 296.105L131.784 296.946C133.34 294.565 135.629 291.23 138.326 287.551H143.877V286.006H139.468C141.045 283.891 142.736 281.694 144.481 279.525C146.541 276.968 148.674 274.452 150.789 272.151L156.177 271.345L155.947 269.818L152.502 270.333Z" fill="#81AEAC"/>
<path d="M184.824 297.299H222.046C242.233 290.036 262.421 256.564 243.811 260.038C225.2 263.511 206.904 261.932 231.193 249.933C255.482 237.934 242.233 228.777 231.193 229.724C220.153 230.671 222.046 223.093 226.462 208.568C230.878 194.042 226.462 180.78 214.16 180.78C201.858 180.78 211.637 216.778 201.858 219.304C192.079 221.829 196.811 205.094 184.824 208.568C172.838 212.041 192.394 253.406 184.824 249.933C177.253 246.46 178.2 229.724 164.637 242.355C153.785 252.459 173.574 283.194 184.824 297.299Z" fill="white"/>
<path d="M93.0751 296.933L91.2792 282.609H16.3029L14.9561 296.933H93.0751Z" fill="#81AEAC"/>
<path d="M148.625 213.813C144.611 216.146 139.427 218.952 137.336 220.063L134.827 233.815C136.36 232.287 141.517 228.564 149.879 225.898C160.33 222.563 169.528 217.146 166.602 212.562C164.261 208.895 158.937 211.034 156.568 212.562C155.592 212.007 152.638 211.479 148.625 213.813Z" fill="#EFCB96"/>
<path d="M137.498 169.58C136.849 171.839 134.25 174.556 133.032 175.632C135.333 179.398 140.178 186.608 141.153 185.316C142.371 183.702 145.619 179.264 152.929 173.212C160.238 167.158 156.988 159.895 152.929 159.088C148.867 158.282 144.402 164.738 143.59 164.738C142.777 164.738 143.183 163.527 143.59 161.509C143.996 159.492 143.183 157.071 139.935 159.895C136.686 162.72 138.311 166.755 137.498 169.58Z" fill="#EFCB96"/>
<path d="M65.0528 137.278L59.4033 146.875L74.1788 160.4L80.2629 145.567L80.3508 145.577C84.2775 146.016 91.1628 146.785 95.9076 134.66C100.688 122.444 98.0805 108.047 80.2629 108.483C66.0088 108.832 64.1836 127.825 65.0528 137.278Z" fill="#EFCB96"/>
<path fill-rule="evenodd" clip-rule="evenodd" d="M14.9563 284.847C10.0178 284.399 7.36491 277.33 14.9563 235.158C24.3845 182.783 45.4856 143.837 55.3627 142.942C65.2398 142.047 80.0554 160.4 81.4024 163.982C81.484 164.199 81.5905 164.606 81.719 165.178C81.763 165.227 81.8071 165.276 81.8511 165.325C87.538 173.979 99.63 191.737 102.503 193.526C104.543 194.797 112.375 187.839 119.503 181.506C124.925 176.689 129.94 172.232 131.686 172.04C135.726 171.592 147.399 182.783 147.399 185.021C147.399 186.298 138.489 202.286 129.582 216.7C133.256 215.98 136.028 215.731 137.073 216.357C141.563 219.043 146.501 233.815 145.154 238.292C144.077 241.873 113.279 262.167 98.0139 271.866C97.9168 274.527 98.2035 276.826 98.4396 278.72C98.9317 282.666 99.2037 284.847 95.3201 284.847H14.9563Z" fill="#DCDDC3"/>
<path d="M67.484 274.104C78.259 278.402 92.3264 274.403 98.0133 271.866L98.4621 277.685C91.7278 280.968 75.9244 284.131 64.7902 277.685C53.6561 271.239 44.7367 232.024 41.4443 212.775C45.6347 231.428 56.709 269.806 67.484 274.104Z" fill="#81AEAC"/>
<path d="M62.8525 135.574C63.1964 138.333 66.7214 140.172 68.441 140.747C69.444 141.177 71.88 142.126 73.5996 142.471C75.7491 142.902 80.4779 137.298 77.0387 133.419C73.5996 129.539 77.8985 121.78 81.3376 124.798C84.7767 127.816 82.6272 135.574 84.3468 134.711C86.0664 133.85 88.6458 124.798 92.9446 123.073C97.2434 121.349 110.57 125.229 111.43 115.314C112.29 105.4 102.402 105.4 95.5239 105.4C88.6458 105.4 83.9169 100.227 71.4501 105.4C58.9835 110.573 62.4226 132.126 62.8525 135.574Z" fill="#81AEAC"/>
<path d="M89.483 274.999C77.2713 261.748 61.1986 256.795 54.9131 256.198C56.2599 261.42 62.5454 272.94 67.9329 274.552C76.4632 277.684 85.4424 275.895 89.483 274.999Z" fill="#81AEAC"/>
<path d="M95.3194 221.281C93.8828 219.49 89.9319 189.498 88.1361 174.726L81.8506 165.772C84.5444 185.021 90.6503 223.788 93.5236 224.863C96.397 225.937 118.366 219.938 128.992 216.804C118.366 219.043 96.7561 223.072 95.3194 221.281Z" fill="#81AEAC"/>
<path d="M75.5654 144.285C76.6429 144.643 79.3068 145.329 80.5039 145.628L78.7081 149.209L75.5654 144.285Z" fill="#032068"/>
<path d="M241.45 281.361L239.206 297.477H328.998L326.753 281.361H241.45Z" fill="#81AEAC"/>
<path d="M189.288 139.086C189.511 141.425 191.567 144.571 192.566 145.852C189.61 149.134 183.521 155.334 182.801 153.886C181.9 152.077 179.524 147.119 173.453 139.832C167.381 132.546 171.91 126 176.05 125.949C180.19 125.899 183.394 133.063 184.192 133.211C184.99 133.359 184.814 132.095 184.786 130.038C184.758 127.98 186.002 125.749 188.675 129.12C191.349 132.491 189.01 136.16 189.288 139.086Z" fill="#EFCB96"/>
<path d="M274.806 138.569L280.062 147.671L266.317 160.496L260.657 146.43L260.575 146.439C256.923 146.855 250.518 147.584 246.104 136.086C241.657 124.503 244.082 110.85 260.657 111.264C273.916 111.595 275.614 129.605 274.806 138.569Z" fill="#EFCB96"/>
<path fill-rule="evenodd" clip-rule="evenodd" d="M258.66 159.663C247.777 164.267 226.99 172.48 222.145 172.134C218.743 171.893 212.314 163.254 206.349 155.238C201.295 148.449 196.575 142.106 194.31 141.694C189.372 140.799 178.148 150.2 177.25 152.885C176.351 155.571 201.493 208.394 210.473 212.871C216.881 216.067 235.44 210.234 246.701 205.867C241.988 236.156 237.935 271.872 237.41 278.675C237.027 283.635 239.175 286.275 241.9 287.568C241.544 288.656 241.26 289.733 240.961 290.861C240.896 291.107 240.83 291.356 240.762 291.606C240.111 294.045 241.904 296.581 244.435 296.581H263.199C265.319 296.581 267.299 295.526 268.474 293.767L271.98 288.524H287.244H322.264C337.976 288.524 333.038 258.98 322.264 211.976C311.489 164.973 295.775 147.514 289.041 145.276C282.849 143.218 266.791 151.376 258.66 159.663Z" fill="#DCDDC3"/>
<path d="M255.956 241.832C254.629 250.836 245.733 276.712 241.45 288.524C244.49 276.295 250.9 249.836 252.226 241.832C253.552 233.828 256.37 196.807 257.613 179.297C257.613 196.39 257.282 232.827 255.956 241.832Z" fill="#81AEAC"/>
<path d="M282.696 288.524C299.594 254.641 295.061 254.641 297.121 207.947C295.885 219.241 292.835 244.392 290.527 254.641C288.219 264.888 277.201 281.499 271.979 288.524H282.696Z" fill="#81AEAC"/>
<path d="M241.45 201.232C244.325 198.009 248.334 188.4 250.879 179.297C249.083 192.279 248.186 196.756 246.839 205.708C240.732 209.29 229.029 211.976 223.941 212.871C228.581 210.335 238.577 204.456 241.45 201.232Z" fill="#81AEAC"/>
<path d="M228.881 211.528C219.901 204.724 205.983 201.232 200.146 200.337C202.242 204.067 207.51 211.886 211.82 213.319C216.13 214.751 224.989 212.722 228.881 211.528Z" fill="#81AEAC"/>
<path d="M243.246 126.475C245.043 121.461 249.383 118.119 251.327 117.073C254.561 125.669 258.661 127.519 260.307 127.37C260.307 125.132 263.001 121.998 266.144 124.684C271.172 128.982 266.742 133.04 263.898 134.532L275.572 147.514L279.612 146.171C283.204 145.724 287.244 146.619 294.877 156.467C300.982 164.346 303.108 162.137 303.407 160.048C306.101 139.904 292.183 129.608 285 123.789C277.816 117.969 275.572 101.711 260.307 103.196C245.581 104.629 242.349 118.268 243.246 126.475Z" fill="#81AEAC"/>
<path d="M283.734 270.618C283.1 257.27 286.111 241.002 294.427 233.911C293.635 239.195 291.418 250.513 290.467 255.185C289.517 259.856 285.45 267.559 283.734 270.618Z" fill="#81AEAC"/>
<path d="M265.246 145.276C264.169 145.634 261.505 145.872 260.308 146.171L262.104 150.2L265.246 145.276Z" fill="#032068"/>
<path d="M74.374 48.9007C74.374 46.8248 76.0674 45.1421 78.1563 45.1421H143.361C145.45 45.1421 147.144 46.8248 147.144 48.9007V76.913C147.144 78.9888 145.45 80.6716 143.361 80.6716H78.1563C76.0674 80.6716 74.374 78.9888 74.374 76.913V48.9007Z" fill="white"/>
<path fill-rule="evenodd" clip-rule="evenodd" d="M73.6172 48.9009C73.6172 46.41 75.6492 44.3906 78.1559 44.3906H143.361C145.867 44.3906 147.9 46.41 147.9 48.9009V76.9132C147.9 79.4042 145.867 81.4235 143.361 81.4235H78.1559C75.6492 81.4235 73.6172 79.4042 73.6172 76.9132V48.9009ZM78.1559 45.8941C76.4848 45.8941 75.13 47.2403 75.13 48.9009V76.9132C75.13 78.5739 76.4848 79.9201 78.1559 79.9201H143.361C145.031 79.9201 146.386 78.5739 146.386 76.9132V48.9009C146.386 47.2403 145.031 45.8941 143.361 45.8941H78.1559Z" fill="#032068"/>
<path d="M96.1812 62.8753C96.1812 65.0507 94.4066 66.8141 92.2176 66.8141C90.0285 66.8141 88.2539 65.0507 88.2539 62.8753C88.2539 60.7 90.0285 58.9365 92.2176 58.9365C94.4066 58.9365 96.1812 60.7 96.1812 62.8753Z" fill="#81AEAC"/>
<path d="M115.11 62.8749C115.11 65.0502 113.335 66.8136 111.146 66.8136C108.957 66.8136 107.183 65.0502 107.183 62.8749C107.183 60.6995 108.957 58.936 111.146 58.936C113.335 58.936 115.11 60.6995 115.11 62.8749Z" fill="#81AEAC"/>
<path d="M134.459 62.8749C134.459 65.0502 132.685 66.8136 130.495 66.8136C128.306 66.8136 126.531 65.0502 126.531 62.8749C126.531 60.6995 128.306 58.936 130.495 58.936C132.685 58.936 134.459 60.6995 134.459 62.8749Z" fill="#81AEAC"/>
<path d="M188.444 57.5238C188.444 55.6364 189.98 54.1064 191.874 54.1064H261.549C263.444 54.1064 264.979 55.6364 264.979 57.5238V88.1615C264.979 90.0489 263.444 91.5789 261.549 91.5789H191.874C189.98 91.5789 188.444 90.0489 188.444 88.1615V57.5238Z" fill="white"/>
<path fill-rule="evenodd" clip-rule="evenodd" d="M187.758 57.5237C187.758 55.2588 189.601 53.4229 191.874 53.4229H261.549C263.822 53.4229 265.665 55.2588 265.665 57.5237V88.1614C265.665 90.4262 263.822 92.2622 261.549 92.2622H191.874C189.601 92.2622 187.758 90.4262 187.758 88.1614V57.5237ZM191.874 54.7898C190.358 54.7898 189.13 56.0137 189.13 57.5237V88.1614C189.13 89.6713 190.358 90.8953 191.874 90.8953H261.549C263.065 90.8953 264.293 89.6713 264.293 88.1614V57.5237C264.293 56.0137 263.065 54.7898 261.549 54.7898H191.874Z" fill="#032068"/>
<path d="M200.389 68.5453C200.389 66.6579 201.924 65.1279 203.819 65.1279H212.886C214.78 65.1279 216.315 66.6579 216.315 68.5453V77.5813C216.315 79.4687 214.78 80.9987 212.886 80.9987H203.819C201.924 80.9987 200.389 79.4687 200.389 77.5813V68.5453Z" fill="#81AEAC"/>
<path fill-rule="evenodd" clip-rule="evenodd" d="M252.592 68.4562H227.376V67.0894H252.592V68.4562ZM239.755 80.3593H227.376V78.9923H239.755V80.3593Z" fill="#81AEAC"/>
<path d="M298.083 82.9637L294.048 88.2944C293.803 88.6187 293.402 88.7747 293.01 88.6989L288.024 87.7351C286.952 87.5277 286.303 88.9187 287.132 89.6523L291.051 93.125C291.338 93.3785 291.472 93.769 291.406 94.1521L290.423 99.8782C290.239 100.955 291.523 101.621 292.25 100.826L296.277 96.4254C296.512 96.1671 296.855 96.0422 297.196 96.0902L301.855 96.7447C302.905 96.8922 303.499 95.5428 302.701 94.8244L299.237 91.705C298.958 91.4545 298.825 91.0734 298.885 90.6976L299.978 83.8192C300.156 82.6942 298.763 82.0652 298.083 82.9637Z" fill="#81AEAC"/>
<path d="M38.3756 96.9378L38.8131 100.844C38.8398 101.081 38.7317 101.311 38.533 101.439L36.0055 103.067C35.4617 103.417 35.7496 104.271 36.4023 104.243L39.4918 104.115C39.7174 104.105 39.934 104.215 40.0614 104.405L41.9666 107.232C42.3248 107.764 43.1457 107.522 43.1343 106.888L43.0709 103.379C43.0671 103.174 43.1632 102.981 43.3289 102.862L45.5904 101.237C46.0998 100.871 45.8062 100.056 45.1725 100.078L42.421 100.171C42.2002 100.178 41.9884 100.071 41.8612 99.8873L39.5346 96.5267C39.1541 95.9771 38.3018 96.2793 38.3756 96.9378Z" fill="#81AEAC"/>
</svg>
