<svg width="24" height="24" viewBox="0 0 24 24" fill="none" xmlns="http://www.w3.org/2000/svg">
<path fill-rule="evenodd" clip-rule="evenodd" d="M11.8712 2.51688C11.9556 2.49437 12.0444 2.49437 12.1288 2.51688L19.6288 4.51688C19.8477 4.57525 20 4.77347 20 5V13.8593C20 15.3639 19.248 16.7689 17.9962 17.6035L13.3868 20.6764C12.547 21.2363 11.453 21.2363 10.6132 20.6764L6.00385 17.6035C4.75195 16.7689 4 15.3639 4 13.8593V5C4 4.77347 4.15229 4.57525 4.37117 4.51688L11.8712 2.51688ZM5 5.38414V13.8593C5 15.0295 5.58485 16.1223 6.55855 16.7714L11.1679 19.8444C11.6718 20.1803 12.3282 20.1803 12.8321 19.8444L17.4415 16.7714C18.4151 16.1223 19 15.0295 19 13.8593V5.38414L12 3.51747L5 5.38414Z" />
</svg>
