<svg width="24" height="24" viewBox="0 0 24 24" fill="none" xmlns="http://www.w3.org/2000/svg">
<path d="M14.0221 7H15.0221C15.2872 7.00034 15.5414 7.10581 15.7288 7.29327C15.9163 7.48073 16.0218 7.73489 16.0221 8V9C16.0221 9.26521 16.1275 9.51957 16.315 9.7071C16.5025 9.89464 16.7569 10 17.0221 10C17.2873 10 17.5417 9.89464 17.7292 9.7071C17.9167 9.51957 18.0221 9.26521 18.0221 9V8C18.0212 7.20461 17.7049 6.44206 17.1425 5.87964C16.58 5.31722 15.8175 5.00087 15.0221 5H14.0221C13.7569 5 13.5025 5.10535 13.315 5.29289C13.1275 5.48043 13.0221 5.73478 13.0221 6C13.0221 6.26521 13.1275 6.51957 13.315 6.7071C13.5025 6.89464 13.7569 7 14.0221 7ZM10.0221 16H9.0221C8.75699 15.9997 8.50284 15.8942 8.31538 15.7067C8.12792 15.5193 8.02245 15.2651 8.0221 15V14C8.0221 13.7348 7.91675 13.4804 7.72921 13.2929C7.54167 13.1054 7.28732 13 7.0221 13C6.75689 13 6.50253 13.1054 6.315 13.2929C6.12746 13.4804 6.0221 13.7348 6.0221 14V15C6.02297 15.7954 6.33932 16.5579 6.90174 17.1204C7.46416 17.6828 8.22672 17.9991 9.0221 18H10.0221C10.2873 18 10.5417 17.8946 10.7292 17.7071C10.9167 17.5196 11.0221 17.2652 11.0221 17C11.0221 16.7348 10.9167 16.4804 10.7292 16.2929C10.5417 16.1054 10.2873 16 10.0221 16ZM21.0221 15C21.2873 15 21.5417 14.8946 21.7292 14.7071C21.9167 14.5196 22.0221 14.2652 22.0221 14C22.0221 13.7348 21.9167 13.4804 21.7292 13.2929C21.5417 13.1054 21.2873 13 21.0221 13H18.0221V12.5C18.0221 12.2348 17.9167 11.9804 17.7292 11.7929C17.5417 11.6054 17.2873 11.5 17.0221 11.5C16.7569 11.5 16.5025 11.6054 16.315 11.7929C16.1275 11.9804 16.0221 12.2348 16.0221 12.5V13H13.0221C12.7569 13 12.5025 13.1054 12.315 13.2929C12.1275 13.4804 12.0221 13.7348 12.0221 14C12.0221 14.2652 12.1275 14.5196 12.315 14.7071C12.5025 14.8946 12.7569 15 13.0221 15H18.2064C17.9801 15.9191 17.5625 16.78 16.9808 17.5267C16.7428 17.2181 16.5323 16.8893 16.3517 16.5439C16.2918 16.4271 16.2095 16.3232 16.1095 16.2382C16.0094 16.1532 15.8936 16.0887 15.7686 16.0484C15.6437 16.0082 15.512 15.9929 15.3812 16.0035C15.2503 16.0142 15.1228 16.0505 15.006 16.1104C14.8892 16.1702 14.7853 16.2526 14.7003 16.3526C14.6152 16.4526 14.5508 16.5684 14.5105 16.6934C14.4292 16.9458 14.4515 17.2201 14.5724 17.456C14.8417 17.9765 15.1631 18.4684 15.5315 18.924C14.806 19.4508 13.981 19.8247 13.1066 20.023C12.8479 20.0801 12.6224 20.2374 12.4797 20.4605C12.3369 20.6836 12.2884 20.9542 12.3449 21.213C12.4014 21.4717 12.5583 21.6975 12.7811 21.8408C13.0039 21.984 13.2744 22.0331 13.5333 21.9771C14.788 21.6996 15.9649 21.1456 16.9783 20.3555C18.0002 21.146 19.1849 21.6997 20.4469 21.9766C20.5751 22.0049 20.7077 22.0076 20.837 21.9847C20.9663 21.9617 21.0898 21.9135 21.2005 21.8428C21.3112 21.7722 21.4068 21.6804 21.482 21.5727C21.5572 21.465 21.6105 21.3436 21.6388 21.2154C21.667 21.0871 21.6698 20.9546 21.6468 20.8253C21.6239 20.696 21.5757 20.5725 21.505 20.4618C21.4343 20.3511 21.3425 20.2554 21.2349 20.1802C21.1272 20.105 21.0058 20.0518 20.8775 20.0235C19.9973 19.8278 19.1655 19.4571 18.4314 18.9334C19.3561 17.7952 19.9794 16.4425 20.2438 15H21.0221ZM9.05186 11.2427C9.11688 11.4993 9.28098 11.7197 9.5082 11.8555C9.73542 11.9913 10.0072 12.0315 10.264 11.9673C10.5208 11.903 10.7417 11.7396 10.8782 11.5128C11.0147 11.286 11.0557 11.0143 10.9923 10.7573L9.23496 3.72754C9.11153 3.23408 8.8267 2.79604 8.42575 2.48303C8.0248 2.17002 7.53074 2 7.02207 2C6.51341 2 6.01934 2.17002 5.61839 2.48303C5.21744 2.79604 4.93262 3.23408 4.80918 3.72754L3.05186 10.7573C2.98841 11.0143 3.02944 11.286 3.16595 11.5128C3.30247 11.7396 3.52333 11.903 3.78014 11.9673C4.03694 12.0315 4.30874 11.9913 4.53596 11.8555C4.76318 11.7197 4.92728 11.4993 4.99229 11.2427L5.5529 9H8.49125L9.05186 11.2427ZM6.0529 7L6.74961 4.21289C6.77054 4.15756 6.80782 4.10991 6.85649 4.07628C6.90516 4.04266 6.96292 4.02465 7.02207 4.02465C7.08123 4.02465 7.13899 4.04266 7.18766 4.07628C7.23633 4.10991 7.2736 4.15756 7.29453 4.21289L7.99125 7H6.0529Z" fill="white"/>
</svg>
