<svg width="24" height="24" viewBox="0 0 24 24" fill="none" xmlns="http://www.w3.org/2000/svg">
<path d="M10.9998 23C11.5302 23 12.0389 22.7893 12.414 22.4142C12.7891 22.0391 12.9998 21.5304 12.9998 21H8.99979C8.99979 21.5304 9.2105 22.0391 9.58557 22.4142C9.96065 22.7893 10.4694 23 10.9998 23ZM2.99979 19H18.9998C19.1975 19 19.3908 18.9413 19.5552 18.8314C19.7197 18.7215 19.8478 18.5654 19.9235 18.3827C19.9991 18.2 20.0189 17.9989 19.9804 17.805C19.9418 17.611 19.8466 17.4329 19.7068 17.293L17.9998 15.586V10C17.9966 8.3185 17.3887 6.69424 16.2871 5.42379C15.1856 4.15334 13.6639 3.32145 11.9998 3.08V2C11.9998 1.73478 11.8944 1.48043 11.7069 1.29289C11.5194 1.10536 11.265 1 10.9998 1C10.7346 1 10.4802 1.10536 10.2927 1.29289C10.1051 1.48043 9.99979 1.73478 9.99979 2V3.08C8.33571 3.32145 6.81397 4.15334 5.71243 5.42379C4.61088 6.69424 4.003 8.3185 3.99979 10V15.586L2.29279 17.293C2.15298 17.4329 2.05777 17.611 2.0192 17.805C1.98064 17.9989 2.00044 18.2 2.07611 18.3827C2.15178 18.5654 2.27992 18.7215 2.44433 18.8314C2.60874 18.9413 2.80204 19 2.99979 19ZM5.70679 16.707C5.89434 16.5195 5.99973 16.2652 5.99979 16V10C5.99979 8.67392 6.52657 7.40215 7.46425 6.46447C8.40193 5.52678 9.67371 5 10.9998 5C12.3259 5 13.5976 5.52678 14.5353 6.46447C15.473 7.40215 15.9998 8.67392 15.9998 10V16C15.9998 16.2652 16.1052 16.5195 16.2928 16.707L16.5858 17H5.41379L5.70679 16.707Z" fill="white"/>
</svg>
