<svg width="291" height="291" viewBox="0 0 291 291" fill="none" xmlns="http://www.w3.org/2000/svg">
<path d="M56.8172 109.979C52.8775 145.371 47.1867 150.177 23.9855 177.266C11.9084 191.368 15.4862 212.77 22.6353 230.616C28.84 246.105 45.0706 254.167 61.7756 254.167H193.809C206.485 254.167 253.104 217.619 262.124 208.725C298.021 173.334 277.446 102.115 252.057 88.1323C226.667 74.1506 197.774 100.803 152.248 59.7318C106.721 18.6602 60.4652 77.2091 56.8172 109.979Z" fill="#F6E1CE"/>
<path d="M192.841 68.3766C179.307 64.4641 167.909 53.7047 163.903 48.814C157.225 35.0312 189.279 43.0341 199.52 48.814C209.759 54.5939 223.561 56.3723 220.89 62.5968C218.218 68.8213 209.759 73.2674 192.841 68.3766Z" fill="#F6E1CE"/>
<path d="M183.05 254.167H140.593C128.774 249.798 113.017 244.555 116.957 234.506C120.896 224.457 140.593 238.001 145.845 228.389C151.098 218.778 108.64 217.466 113.017 205.234C117.394 193 144.094 208.728 140.593 196.932C137.091 185.135 107.326 189.504 108.64 177.271C109.953 165.038 132.276 185.135 134.903 171.155C137.528 157.173 113.455 132.269 132.276 127.9C151.098 123.531 145.845 168.97 152.411 171.155C158.976 173.339 165.105 149.746 174.296 160.231C183.488 170.717 167.73 194.31 174.296 205.234C180.862 216.156 190.054 175.523 200.559 194.31C208.963 209.34 192.388 240.478 183.05 254.167Z" fill="white"/>
<path d="M220.758 145.934L222.504 155.099L220.758 164.7C216.249 165.282 207.055 166.446 206.357 166.446C205.658 166.446 200.538 162.082 198.064 159.899L200.683 145.934C193.351 143.49 190.937 132.696 190.646 127.604C188.9 106.656 202.865 104.037 205.484 104.037C208.102 104.037 224.686 104.037 226.868 121.494C228.614 135.46 223.523 143.606 220.758 145.934Z" fill="#EFCB96"/>
<path d="M209.111 145.935C205.047 147.289 201.632 146.499 200.22 145.935L199.374 151.014C204.793 150.337 207.982 147.487 209.111 145.935Z" fill="#81AEAC"/>
<path d="M210.284 160.773C219.012 160.773 222.65 155.536 223.814 152.917L226.868 153.79L207.665 253.294H204.611H157.914L187.154 159.027L197.191 152.917H198.501C199.083 155.536 201.556 160.773 210.284 160.773Z" fill="white"/>
<path fill-rule="evenodd" clip-rule="evenodd" d="M223.324 151.869L223.015 152.563C221.947 154.966 218.569 159.9 210.284 159.9C206.108 159.9 203.528 158.653 201.928 157.184C200.312 155.7 199.616 153.914 199.353 152.728L199.201 152.044H196.947L186.418 158.454L156.729 254.167H208.386L227.877 153.17L223.324 151.869ZM197.827 153.79C198.24 155.169 199.089 156.947 200.747 158.47C202.711 160.274 205.732 161.646 210.284 161.646C218.762 161.646 222.732 156.911 224.278 153.958L225.859 154.41L206.945 252.421H159.098L187.89 159.601L197.437 153.79H197.827Z" fill="#81AEAC"/>
<path d="M209.412 204.851C211.856 189.14 220.322 163.391 224.25 152.48C231.669 153.789 248.166 158.852 254.8 168.628C261.434 178.404 270.365 210.816 274.002 225.799C277.93 239.328 277.93 254.167 263.091 254.167H195.883C188.9 240.637 191.082 234.091 193.264 231.473C195.01 229.378 202.754 227.691 206.408 227.109C207.358 219.292 208.403 211.34 209.412 204.851Z" fill="#DCDDC3"/>
<path d="M181.045 204.851C183.837 187.394 193.264 162.664 197.629 152.48C192.536 152.771 180.607 155.186 173.625 162.519C164.896 171.683 150.931 205.724 148.312 209.215C143.075 215.325 102.893 231.594 102.052 234.527C98.5596 239.328 102.488 251.985 106.852 254.167H175.371C176.098 244.71 178.251 222.308 181.045 204.851Z" fill="#DCDDC3"/>
<path d="M233.852 220.563L227.305 193.941L229.051 220.126L196.633 228.328C194.194 228.945 191.963 230.462 191.254 232.876C189.062 240.343 192.389 248.99 195.01 251.985C192.337 248.93 192.391 234.091 195.446 231.91C197.89 230.164 228.178 224.49 243.016 221.872L233.852 220.563Z" fill="#81AEAC"/>
<path d="M168.824 186.958L152.677 254.167H145.694L168.824 186.958Z" fill="#81AEAC"/>
<path d="M164.459 254.167C164.459 242.296 182.062 238.747 190.646 238.456C190.646 244.391 193.7 250.239 196.319 254.167H164.459Z" fill="#EFCB96"/>
<path d="M79.7939 254.167C79.7939 243.616 93.6538 240.024 101.179 239.765C101.179 245.04 104.63 251.71 106.416 254.167H79.7939Z" fill="#EFCB96"/>
<path d="M223.377 123.677C225.122 128.565 220.322 131.532 217.704 132.405L222.068 154.663L222.941 152.917C232.978 153.79 242.289 158.154 246.071 160.773C248.253 147.243 239.961 141.57 235.16 131.096C230.359 120.622 234.288 96.1821 209.848 96.1821C190.297 96.1821 187.445 113.64 188.463 122.368C197.191 119.923 202.284 110.875 203.738 106.656C204.611 108.838 212.03 128.478 214.648 123.677C217.267 118.877 221.195 117.567 223.377 123.677Z" fill="#81AEAC"/>
<path d="M182.353 156.845C188.288 150.91 190.646 137.206 191.082 131.096C192.478 141.221 198.064 145.207 200.683 145.935L199.374 152.917C191.692 152.568 184.827 155.39 182.353 156.845Z" fill="#81AEAC"/>
<path d="M256.981 254.167C259.076 240.201 269.638 231.328 274.875 228.854C277.704 240.265 277.057 254.167 264.837 254.167H256.981Z" fill="#81AEAC"/>
<path d="M50.8403 82.168C50.8403 80.1818 52.4588 78.5718 54.4553 78.5718H122.59C124.586 78.5718 126.205 80.1818 126.205 82.168V118.925C126.205 120.911 124.586 122.521 122.59 122.521H54.4553C52.4588 122.521 50.8403 120.911 50.8403 118.925V82.168Z" fill="white"/>
<path fill-rule="evenodd" clip-rule="evenodd" d="M50.1172 82.168C50.1172 79.7846 52.0593 77.8525 54.4551 77.8525H122.589C124.985 77.8525 126.927 79.7846 126.927 82.168V118.925C126.927 121.308 124.985 123.241 122.589 123.241H54.4551C52.0593 123.241 50.1172 121.308 50.1172 118.925V82.168ZM54.4551 79.2911C52.8579 79.2911 51.5632 80.579 51.5632 82.168V118.925C51.5632 120.514 52.8579 121.802 54.4551 121.802H122.589C124.187 121.802 125.482 120.514 125.482 118.925V82.168C125.482 80.5791 124.187 79.2911 122.589 79.2911H54.4551Z" fill="#81AEAC"/>
<path d="M103.451 98.8024L85.1436 114.249V118.666C85.1436 120.653 86.762 122.263 88.7586 122.263H122.589C124.586 122.263 126.205 120.653 126.205 118.666V112.564L107.987 98.6889C106.637 97.6607 104.749 97.7072 103.451 98.8024Z" fill="#81AEAC"/>
<path d="M93.9003 92.2335C93.9003 94.9243 91.7075 97.1057 89.0026 97.1057C86.2977 97.1057 84.105 94.9243 84.105 92.2335C84.105 89.5427 86.2977 87.3613 89.0026 87.3613C91.7075 87.3613 93.9003 89.5427 93.9003 92.2335Z" fill="#DCDDC3"/>
<path d="M69.3996 98.7859L50.8403 114.249V118.925C50.8403 120.911 52.4588 122.521 54.4553 122.521H104.895L73.9323 98.6976C72.5884 97.6636 70.7021 97.7005 69.3996 98.7859Z" fill="white"/>
<path fill-rule="evenodd" clip-rule="evenodd" d="M73.4898 99.2668C72.4147 98.4394 70.9056 98.4685 69.8637 99.3366L51.5632 114.584V118.925C51.5632 120.514 52.8579 121.802 54.4551 121.802H102.778L73.4898 99.2668ZM68.9353 98.2337C70.4982 96.9319 72.7618 96.8882 74.3745 98.129L107.011 123.24H54.4551C52.0593 123.24 50.1172 121.308 50.1172 118.925V113.912L68.9353 98.2337Z" fill="#81AEAC"/>
<path d="M10.0204 184.928C8.91036 211.242 25.3033 240.05 34.6084 252.473C35.094 253.12 35.8562 253.489 36.6665 253.489H43.5843C45.1538 253.489 46.369 252.093 46.1625 250.537C39.999 204.119 22.9167 186.776 12.9134 182.881C11.4934 182.327 10.0846 183.405 10.0204 184.928Z" fill="white"/>
<path fill-rule="evenodd" clip-rule="evenodd" d="M12.5965 183.694C11.8249 183.393 10.9355 183.939 10.8922 184.964C10.3449 197.941 14.1155 211.585 19.2117 223.568C24.3049 235.542 30.693 245.789 35.3067 251.949C35.6217 252.37 36.1209 252.616 36.6663 252.616H43.5841C44.6226 252.616 45.4346 251.688 45.2971 250.652C39.1497 204.355 22.1569 187.418 12.5965 183.694ZM9.14813 184.891C9.23334 182.871 11.1616 181.261 13.23 182.067C23.6761 186.136 40.8482 203.883 47.0275 250.423C47.3031 252.498 45.6846 254.361 43.5841 254.361H36.6663C35.5911 254.361 34.566 253.872 33.9096 252.995C29.2183 246.732 22.7575 236.365 17.6053 224.25C12.4564 212.145 8.58552 198.228 9.14813 184.891Z" fill="#81AEAC"/>
<path d="M62.3954 169.237C40.863 188.483 36.5514 233.588 36.6139 251.298C36.6189 252.71 37.7784 253.807 39.1915 253.807H45.5967C46.566 253.807 47.4668 253.254 47.915 252.395C69.4663 211.08 67.249 185.425 66.4678 171.123C66.3531 169.021 63.9646 167.834 62.3954 169.237Z" fill="#81AEAC"/>
<path d="M79.3967 209.503C62.4198 217.616 49.0419 237.668 42.8611 249.848C42.0025 251.541 43.2599 253.489 45.1575 253.489H52.7717C53.2764 253.489 53.7753 253.342 54.1958 253.063C72.6932 240.789 80.3566 222.55 82.5544 211.972C82.9436 210.099 81.123 208.678 79.3967 209.503Z" fill="white"/>
<path fill-rule="evenodd" clip-rule="evenodd" d="M81.6997 211.795C81.9412 210.633 80.8511 209.775 79.773 210.29C71.4439 214.27 63.9506 221.207 57.7531 228.706C51.5615 236.198 46.7058 244.2 43.6394 250.244C43.0911 251.323 43.8756 252.616 45.1574 252.616H52.7716C53.1081 252.616 53.4385 252.517 53.7131 252.335C71.9704 240.22 79.5353 222.211 81.6997 211.795ZM79.0202 208.715C81.3947 207.58 83.9458 209.566 83.4089 212.15C81.1776 222.888 73.4158 241.356 54.6784 253.79C54.1118 254.165 53.4444 254.361 52.7716 254.361H45.1574C42.6439 254.361 40.9135 251.757 42.0826 249.453C45.197 243.316 50.1206 235.201 56.4074 227.594C62.6882 219.994 70.3724 212.848 79.0202 208.715Z" fill="#81AEAC"/>
<path fill-rule="evenodd" clip-rule="evenodd" d="M19.196 193.064C22.7668 197.91 26.1309 204.546 29.1474 211.726C31.1904 216.588 33.0816 221.72 34.7755 226.745L36.4609 221.363L38.1268 221.884L35.7157 229.584C37.2642 234.343 38.6252 238.945 39.7584 243.06C40.8054 246.862 41.6589 250.252 42.2868 252.974L40.5858 253.366C39.9858 250.766 39.1758 247.54 38.1843 243.92L32.1572 241.221L32.8708 239.627L37.5771 241.736C36.5346 238.038 35.3231 234.007 33.9696 229.861C32.1232 224.204 30.0143 218.338 27.7119 212.817L19.5779 211.004L19.9578 209.3L26.8731 210.842C24.0565 204.328 20.9876 198.439 17.7905 194.1L19.196 193.064Z" fill="#81AEAC"/>
<path fill-rule="evenodd" clip-rule="evenodd" d="M55.613 199.027C56.8752 194.501 58.0768 190.405 59.1574 187.024C60.412 183.098 61.484 180.198 62.2821 178.695L60.7405 177.876C59.8588 179.536 58.745 182.579 57.4945 186.493C56.2368 190.428 54.8209 195.31 53.3407 200.692C52.3078 204.448 51.2429 208.449 50.1776 212.546L47.6564 206.623L46.0501 207.307L49.4604 215.319C48.173 220.321 46.8952 225.415 45.683 230.337C43.5843 238.857 41.6819 246.862 40.2671 252.973L41.9678 253.367C43.3599 247.354 45.2251 239.502 47.2851 231.131L55.869 226.535L55.0448 224.996L47.8482 228.85C48.9408 224.435 50.0795 219.912 51.2248 215.468C52.4701 210.634 53.7229 205.894 54.9323 201.488L61.9661 197.194L61.0565 195.704L55.613 199.027Z" fill="white"/>
<path fill-rule="evenodd" clip-rule="evenodd" d="M69.2979 223.891C71.4194 221.686 73.493 219.729 75.4422 218.161L74.3477 216.801C71.7819 218.866 69.0435 221.549 66.2943 224.538C64.513 226.474 62.7221 228.545 60.9649 230.667L61.4176 227.814L59.6935 227.541L58.7688 233.367C56.4543 236.261 54.2309 239.19 52.2036 241.959C49.0382 246.281 46.3469 250.215 44.5283 253.013L45.992 253.964C47.7417 251.273 50.3168 247.504 53.351 243.348H59.5947V241.602H54.6355C56.4093 239.212 58.3111 236.729 60.2758 234.278C62.5915 231.389 64.9921 228.546 67.3713 225.946L73.4313 225.036L73.172 223.309L69.2979 223.891Z" fill="#81AEAC"/>
<path d="M47.5115 44.5232L49.4365 49.57C49.5536 49.8771 49.4891 50.2177 49.2692 50.453L46.4727 53.4462C45.871 54.0902 46.547 55.13 47.4045 54.8794L51.463 53.6934C51.7593 53.6068 52.0848 53.6822 52.3192 53.8917L55.8221 57.0234C56.4806 57.6122 57.4875 57.0206 57.2542 56.182L55.963 51.5408C55.8872 51.2684 55.9484 50.9806 56.1274 50.768L58.5716 47.8657C59.1222 47.2118 58.4521 46.226 57.6179 46.4627L53.9961 47.4902C53.7052 47.5727 53.3872 47.4998 53.1551 47.2976L48.9094 43.5962C48.215 42.9908 47.187 43.6725 47.5115 44.5232Z" fill="#DCDDC3"/>
<path d="M27.9432 132.37L26.6473 133.969C26.5685 134.067 26.44 134.113 26.314 134.091L24.7125 133.802C24.3679 133.739 24.1601 134.156 24.4259 134.376L25.6847 135.418C25.7766 135.493 25.8199 135.611 25.7989 135.726L25.4831 137.443C25.4237 137.766 25.8363 137.966 26.0699 137.727L27.3629 136.407C27.4388 136.33 27.5489 136.293 27.6585 136.307L29.1548 136.503C29.4919 136.548 29.6828 136.142 29.4265 135.927L28.3137 134.992C28.2243 134.916 28.1816 134.803 28.2008 134.689L28.5516 132.627C28.6091 132.289 28.1616 132.101 27.9432 132.37Z" fill="#DCDDC3"/>
<path d="M125.507 187.721L149.873 243.051C151.096 245.829 149.062 248.948 146.027 248.948H71.6771C69.9695 248.948 68.4317 247.915 67.7863 246.334L45.1974 191.003C44.0688 188.239 46.1022 185.212 49.0881 185.212H121.661C123.328 185.212 124.836 186.196 125.507 187.721Z" fill="white"/>
<path fill-rule="evenodd" clip-rule="evenodd" d="M121.661 186.085C122.982 186.085 124.177 186.865 124.709 188.072L149.075 243.403C150.044 245.604 148.432 248.075 146.027 248.075H71.6773C70.3243 248.075 69.1059 247.256 68.5946 246.004L46.0057 190.673C45.1114 188.483 46.7226 186.085 49.0883 186.085H121.661ZM126.307 187.369C125.496 185.528 123.673 184.34 121.661 184.34H49.0883C45.4822 184.34 43.0265 187.995 44.3894 191.334L66.9784 246.663C67.7579 248.572 69.6151 249.821 71.6773 249.821H146.027C149.693 249.821 152.15 246.054 150.672 242.7L126.307 187.369Z" fill="#81AEAC"/>
<path d="M102.798 212.653C101.431 209.484 98.3105 207.432 94.8599 207.432C88.6455 207.432 84.4612 213.793 86.9221 219.499L87.5354 220.921C88.902 224.09 92.0224 226.143 95.4732 226.143C101.688 226.143 105.872 219.782 103.411 214.075L102.798 212.653Z" fill="#DCDDC3"/>
<path d="M72.8443 254.21H201.879C203.978 254.21 205.681 252.508 205.681 250.409C205.681 248.31 203.978 246.609 201.879 246.609H72.8444C70.1208 246.609 68.2812 249.389 69.3463 251.895C69.9424 253.299 71.3196 254.21 72.8443 254.21Z" fill="#81AEAC"/>
</svg>
