<svg width="229" height="229" viewBox="0 0 229 229" fill="none" xmlns="http://www.w3.org/2000/svg">
<path d="M44.7118 86.5474C41.6115 114.398 37.1331 118.181 18.8752 139.498C9.37116 150.596 12.1867 167.438 17.8126 181.482C22.6954 193.671 35.4679 200.015 48.6137 200.015H152.516C162.492 200.015 199.178 171.254 206.276 164.255C234.525 136.404 218.334 80.3583 198.354 69.3551C178.374 58.3522 155.637 79.3263 119.811 47.0055C83.9836 14.6845 47.5826 60.7591 44.7118 86.5474Z" fill="#F6E1CE"/>
<path d="M151.754 53.8085C141.104 50.7296 132.134 42.2626 128.982 38.4139C123.726 27.5677 148.951 33.8655 157.01 38.4139C165.068 42.9623 175.929 44.3618 173.827 49.2601C171.725 54.1585 165.068 57.6573 151.754 53.8085Z" fill="#F6E1CE"/>
<path d="M144.05 200.015H110.638C101.338 196.577 88.9381 192.451 92.038 184.543C95.1379 176.635 110.638 187.293 114.772 179.729C118.905 172.165 85.4932 171.133 88.9381 161.507C92.3822 151.88 113.394 164.257 110.638 154.974C107.882 145.691 84.4596 149.129 85.4932 139.502C86.5267 129.875 104.093 145.691 106.16 134.689C108.227 123.686 89.2823 104.088 104.093 100.65C118.905 97.2122 114.772 132.97 119.939 134.689C125.105 136.408 129.928 117.841 137.161 126.093C144.394 134.345 131.994 152.911 137.161 161.507C142.328 170.102 149.561 138.127 157.828 152.911C164.442 164.739 151.398 189.242 144.05 200.015Z" fill="white"/>
<path d="M173.724 114.842L175.098 122.054L173.724 129.609C170.175 130.067 162.94 130.983 162.391 130.983C161.841 130.983 157.812 127.549 155.865 125.831L157.926 114.842C152.156 112.918 150.256 104.424 150.027 100.417C148.653 83.9321 159.643 81.8711 161.704 81.8711C163.764 81.8711 176.815 81.8711 178.532 95.6088C179.906 106.599 175.9 113.01 173.724 114.842Z" fill="#EFCB96"/>
<path d="M164.559 114.842C161.36 115.907 158.673 115.286 157.562 114.842L156.896 118.839C161.16 118.307 163.67 116.063 164.559 114.842Z" fill="#81AEAC"/>
<path d="M165.481 126.519C172.35 126.519 175.212 122.397 176.128 120.336L178.532 121.023L163.42 199.328H161.017H124.269L147.279 125.145L155.178 120.336H156.208C156.666 122.397 158.613 126.519 165.481 126.519Z" fill="white"/>
<path fill-rule="evenodd" clip-rule="evenodd" d="M175.743 119.512L175.5 120.058C174.66 121.95 172.001 125.832 165.482 125.832C162.195 125.832 160.165 124.851 158.905 123.695C157.634 122.527 157.086 121.121 156.88 120.188L156.76 119.65H154.986L146.701 124.694L123.336 200.015H163.988L179.326 120.536L175.743 119.512ZM155.679 121.024C156.003 122.109 156.672 123.508 157.976 124.707C159.522 126.126 161.899 127.206 165.482 127.206C172.153 127.206 175.277 123.48 176.494 121.156L177.738 121.511L162.854 198.641H125.201L147.859 125.597L155.371 121.024H155.679Z" fill="#81AEAC"/>
<path d="M164.794 161.206C166.718 148.843 173.38 128.579 176.471 119.993C182.31 121.024 195.292 125.008 200.512 132.7C205.733 140.394 212.761 165.9 215.623 177.691C218.715 188.337 218.715 200.015 207.037 200.015H154.148C148.653 189.368 150.37 184.216 152.087 182.156C153.461 180.507 159.556 179.18 162.431 178.722C163.178 172.57 164 166.312 164.794 161.206Z" fill="#DCDDC3"/>
<path d="M142.472 161.206C144.669 147.469 152.087 128.007 155.522 119.993C151.515 120.222 142.127 122.123 136.633 127.893C129.764 135.105 118.774 161.893 116.713 164.641C112.592 169.449 80.9707 182.251 80.3089 184.56C77.5609 188.337 80.6524 198.297 84.0867 200.015H138.007C138.579 192.573 140.273 174.944 142.472 161.206Z" fill="#DCDDC3"/>
<path d="M184.027 173.57L178.876 152.62L180.25 173.226L154.738 179.681C152.819 180.167 151.064 181.36 150.506 183.26C148.78 189.136 151.399 195.941 153.461 198.297C151.357 195.893 151.4 184.216 153.805 182.499C155.727 181.125 179.563 176.661 191.239 174.6L184.027 173.57Z" fill="#81AEAC"/>
<path d="M132.855 147.125L120.148 200.015H114.653L132.855 147.125Z" fill="#81AEAC"/>
<path d="M129.42 200.015C129.42 190.673 143.272 187.88 150.027 187.651C150.027 192.322 152.431 196.923 154.492 200.015H129.42Z" fill="#EFCB96"/>
<path d="M62.7935 200.015C62.7935 191.711 73.7003 188.884 79.6219 188.681C79.6219 192.832 82.3378 198.081 83.7431 200.015H62.7935Z" fill="#EFCB96"/>
<path d="M175.785 97.3264C177.158 101.173 173.38 103.508 171.32 104.195L174.754 121.71L175.441 120.336C183.34 121.023 190.667 124.458 193.643 126.519C195.361 115.872 188.836 111.407 185.057 103.164C181.279 94.9219 184.371 75.6895 165.138 75.6895C149.752 75.6895 147.508 89.4274 148.309 96.2959C155.178 94.3723 159.185 87.2519 160.33 83.9322C161.017 85.6489 166.855 101.104 168.916 97.3264C170.977 93.5486 174.067 92.5181 175.785 97.3264Z" fill="#81AEAC"/>
<path d="M143.501 123.428C148.172 118.757 150.027 107.973 150.371 103.165C151.469 111.132 155.865 114.27 157.926 114.842L156.896 120.336C150.851 120.062 145.448 122.283 143.501 123.428Z" fill="#81AEAC"/>
<path d="M202.229 200.015C203.878 189.024 212.189 182.041 216.31 180.095C218.537 189.075 218.028 200.015 208.411 200.015H202.229Z" fill="#81AEAC"/>
<path d="M40.0083 64.661C40.0083 63.098 41.2819 61.8311 42.8531 61.8311H96.4708C98.0417 61.8311 99.3157 63.098 99.3157 64.661V93.5868C99.3157 95.1493 98.0417 96.4165 96.4708 96.4165H42.8531C41.2819 96.4165 40.0083 95.1493 40.0083 93.5868V64.661Z" fill="white"/>
<path fill-rule="evenodd" clip-rule="evenodd" d="M39.4395 64.6611C39.4395 62.7855 40.9678 61.2651 42.8532 61.2651H96.4708C98.3563 61.2651 99.8845 62.7855 99.8845 64.6611V93.5869C99.8845 95.4624 98.3563 96.983 96.4708 96.983H42.8532C40.9678 96.983 39.4395 95.4624 39.4395 93.5869V64.6611ZM42.8532 62.3972C41.5963 62.3972 40.5774 63.4107 40.5774 64.6611V93.5869C40.5774 94.8372 41.5963 95.8509 42.8532 95.8509H96.4708C97.728 95.8509 98.7471 94.8372 98.7471 93.5869V64.6611C98.7471 63.4108 97.728 62.3972 96.4708 62.3972H42.8532Z" fill="#81AEAC"/>
<path d="M81.41 77.7517L67.0029 89.9071V93.3833C67.0029 94.9466 68.2766 96.2137 69.8477 96.2137H96.4706C98.0415 96.2137 99.3155 94.9466 99.3155 93.3833V88.5811L84.9794 77.6624C83.9168 76.8533 82.4313 76.8899 81.41 77.7517Z" fill="#81AEAC"/>
<path d="M73.8939 72.5827C73.8939 74.7002 72.1683 76.4168 70.0397 76.4168C67.9111 76.4168 66.1855 74.7002 66.1855 72.5827C66.1855 70.4651 67.9111 68.7485 70.0397 68.7485C72.1683 68.7485 73.8939 70.4651 73.8939 72.5827Z" fill="#DCDDC3"/>
<path d="M54.6134 77.7389L40.0083 89.9072V93.5872C40.0083 95.1497 41.2819 96.4169 42.8531 96.4169H82.546L58.1803 77.6694C57.1228 76.8557 55.6383 76.8847 54.6134 77.7389Z" fill="white"/>
<path fill-rule="evenodd" clip-rule="evenodd" d="M57.8324 78.1174C56.9863 77.4662 55.7988 77.4891 54.9788 78.1723L40.5774 90.1712V93.5871C40.5774 94.8374 41.5963 95.8511 42.8532 95.8511H80.8805L57.8324 78.1174ZM54.2482 77.3044C55.4782 76.2799 57.2595 76.2455 58.5285 77.222L84.2117 96.9832H42.8532C40.9678 96.9832 39.4395 95.4626 39.4395 93.5871V89.6422L54.2482 77.3044Z" fill="#81AEAC"/>
<path d="M7.88545 145.527C7.01191 166.235 19.9122 188.905 27.2347 198.681C27.6169 199.191 28.2167 199.481 28.8544 199.481H34.2983C35.5334 199.481 36.4897 198.383 36.3272 197.159C31.4769 160.63 18.034 146.982 10.1621 143.917C9.04457 143.481 7.93598 144.329 7.88545 145.527Z" fill="white"/>
<path fill-rule="evenodd" clip-rule="evenodd" d="M9.91272 144.556C9.30549 144.32 8.60559 144.75 8.57155 145.556C8.1408 155.768 11.1081 166.505 15.1185 175.935C19.1265 185.358 24.1536 193.422 27.7843 198.269C28.0322 198.6 28.425 198.794 28.8542 198.794H34.2982C35.1154 198.794 35.7544 198.064 35.6461 197.249C30.8085 160.815 17.4362 147.487 9.91272 144.556ZM7.19905 145.498C7.2661 143.909 8.78353 142.642 10.4113 143.276C18.6317 146.478 32.1451 160.444 37.0079 197.068C37.2248 198.701 35.9511 200.168 34.2982 200.168H28.8542C28.0082 200.168 27.2015 199.783 26.6848 199.093C22.9931 194.164 17.9088 186.005 13.8543 176.472C9.80242 166.946 6.7563 155.994 7.19905 145.498Z" fill="#81AEAC"/>
<path d="M49.1015 133.18C32.1568 148.325 28.7638 183.82 28.813 197.757C28.8169 198.868 29.7294 199.732 30.8414 199.732H35.8819C36.6447 199.732 37.3536 199.296 37.7063 198.62C54.6659 166.107 52.921 145.919 52.3063 134.663C52.216 133.009 50.3364 132.076 49.1015 133.18Z" fill="#81AEAC"/>
<path d="M62.4806 164.866C49.1208 171.251 38.5931 187.03 33.7292 196.616C33.0535 197.948 34.043 199.481 35.5364 199.481H41.5283C41.9255 199.481 42.318 199.365 42.649 199.145C57.2053 189.487 63.236 175.134 64.9655 166.81C65.2718 165.336 63.8391 164.217 62.4806 164.866Z" fill="white"/>
<path fill-rule="evenodd" clip-rule="evenodd" d="M64.2932 166.67C64.4833 165.755 63.6254 165.081 62.777 165.486C56.2225 168.618 50.3257 174.077 45.4486 179.978C40.5762 185.874 36.755 192.171 34.342 196.927C33.9105 197.777 34.5278 198.794 35.5366 198.794H41.5285C41.7933 198.794 42.0533 198.716 42.2694 198.573C56.6368 189.039 62.59 174.867 64.2932 166.67ZM62.1846 164.246C64.0532 163.353 66.0608 164.916 65.6383 166.949C63.8824 175.399 57.7743 189.933 43.029 199.718C42.5832 200.013 42.058 200.167 41.5285 200.167H35.5366C33.5586 200.167 32.1969 198.118 33.1169 196.305C35.5677 191.475 39.4423 185.089 44.3897 179.103C49.3323 173.122 55.3793 167.499 62.1846 164.246Z" fill="#81AEAC"/>
<path fill-rule="evenodd" clip-rule="evenodd" d="M15.106 151.93C17.9161 155.744 20.5634 160.966 22.9372 166.616C24.5449 170.443 26.0332 174.481 27.3662 178.435L28.6925 174.2L30.0034 174.61L28.1061 180.67C29.3246 184.415 30.3956 188.036 31.2874 191.274C32.1114 194.266 32.783 196.934 33.2771 199.076L31.9386 199.384C31.4664 197.339 30.829 194.8 30.0487 191.951L25.3057 189.827L25.8673 188.572L29.5709 190.232C28.7505 187.322 27.7971 184.15 26.732 180.887C25.279 176.435 23.6194 171.82 21.8075 167.475L15.4066 166.048L15.7055 164.707L21.1475 165.921C18.931 160.794 16.5159 156.16 14 152.745L15.106 151.93Z" fill="#81AEAC"/>
<path fill-rule="evenodd" clip-rule="evenodd" d="M43.7643 156.623C44.7576 153.061 45.7032 149.838 46.5535 147.177C47.5408 144.088 48.3845 141.805 49.0125 140.623L47.7994 139.979C47.1055 141.285 46.229 143.679 45.2449 146.759C44.2552 149.856 43.141 153.698 41.9761 157.933C41.1633 160.889 40.3253 164.037 39.487 167.262L37.5029 162.601L36.2389 163.139L38.9226 169.444C37.9095 173.38 36.9039 177.389 35.95 181.262C34.2984 187.967 32.8014 194.266 31.688 199.075L33.0263 199.385C34.1219 194.653 35.5897 188.475 37.2108 181.887L43.9657 178.27L43.3172 177.059L37.6539 180.092C38.5137 176.618 39.4098 173.058 40.3111 169.561C41.291 165.757 42.2769 162.027 43.2287 158.56L48.7638 155.18L48.0481 154.008L43.7643 156.623Z" fill="white"/>
<path fill-rule="evenodd" clip-rule="evenodd" d="M54.5332 176.189C56.2028 174.454 57.8345 172.914 59.3685 171.68L58.5071 170.609C56.488 172.235 54.333 174.346 52.1696 176.698C50.7678 178.221 49.3585 179.851 47.9756 181.521L48.3319 179.276L46.9751 179.061L46.2474 183.646C44.426 185.923 42.6764 188.229 41.081 190.407C38.5901 193.809 36.4721 196.905 35.041 199.106L36.1928 199.855C37.5698 197.737 39.5962 194.771 41.9839 191.5H46.8973V190.126H42.9948C44.3906 188.245 45.8872 186.292 47.4334 184.363C49.2557 182.089 51.1448 179.852 53.0171 177.806L57.786 177.09L57.5819 175.731L54.5332 176.189Z" fill="#81AEAC"/>
<path d="M37.3887 35.0372L38.9036 39.0088C38.9958 39.2504 38.945 39.5184 38.772 39.7036L36.5713 42.0591C36.0978 42.5659 36.6298 43.3842 37.3045 43.1869L40.4983 42.2536C40.7315 42.1855 40.9876 42.2448 41.1721 42.4097L43.9287 44.8741C44.4469 45.3375 45.2392 44.8719 45.0557 44.212L44.0396 40.5597C43.9799 40.3453 44.0281 40.1188 44.169 39.9515L46.0924 37.6676C46.5257 37.153 45.9984 36.3773 45.3419 36.5635L42.4917 37.3721C42.2628 37.437 42.0126 37.3797 41.8299 37.2205L38.4888 34.3077C37.9423 33.8313 37.1334 34.3678 37.3887 35.0372Z" fill="#DCDDC3"/>
<path d="M21.9898 104.167L20.9701 105.425C20.908 105.503 20.8069 105.539 20.7078 105.522L19.4475 105.294C19.1763 105.245 19.0128 105.573 19.222 105.746L20.2126 106.566C20.2849 106.625 20.319 106.718 20.3024 106.809L20.0539 108.16C20.0072 108.414 20.3319 108.571 20.5157 108.383L21.5332 107.344C21.5929 107.284 21.6795 107.254 21.7658 107.266L22.9433 107.42C23.2086 107.455 23.3588 107.136 23.1571 106.967L22.2814 106.231C22.2111 106.171 22.1775 106.082 22.1926 105.993L22.4687 104.37C22.5139 104.104 22.1617 103.956 21.9898 104.167Z" fill="#DCDDC3"/>
<path d="M98.7668 147.726L117.941 191.267C118.904 193.453 117.303 195.907 114.914 195.907H56.4056C55.0618 195.907 53.8516 195.094 53.3437 193.85L35.5675 150.308C34.6794 148.133 36.2796 145.751 38.6293 145.751H95.7402C97.0516 145.751 98.2386 146.526 98.7668 147.726Z" fill="white"/>
<path fill-rule="evenodd" clip-rule="evenodd" d="M95.7403 146.438C96.7792 146.438 97.7196 147.051 98.1387 148.002L117.313 191.544C118.075 193.276 116.807 195.22 114.914 195.22H56.4056C55.3409 195.22 54.3821 194.576 53.9797 193.59L36.2035 150.048C35.4998 148.325 36.7677 146.438 38.6294 146.438H95.7403ZM99.3959 147.448C98.7577 146 97.3234 145.064 95.7403 145.064H38.6294C35.7916 145.064 33.8591 147.941 34.9317 150.568L52.7079 194.109C53.3213 195.612 54.7828 196.594 56.4056 196.594H114.914C117.799 196.594 119.733 193.63 118.57 190.99L99.3959 147.448Z" fill="#81AEAC"/>
<path d="M80.8955 167.345C79.82 164.852 77.3644 163.236 74.6489 163.236C69.7586 163.236 66.4658 168.242 68.4024 172.733L68.885 173.852C69.9604 176.346 72.416 177.961 75.1316 177.961C80.0223 177.961 83.3145 172.955 81.378 168.464L80.8955 167.345Z" fill="#DCDDC3"/>
<path d="M57.3242 200.048H158.867C160.519 200.048 161.859 198.709 161.859 197.058C161.859 195.406 160.519 194.067 158.867 194.067H57.3243C55.181 194.067 53.7333 196.255 54.5714 198.227C55.0406 199.332 56.1244 200.048 57.3242 200.048Z" fill="#81AEAC"/>
</svg>
